<?xml version="1.0" encoding="UTF-8"?><svg id="Vrstva_1" xmlns="http://www.w3.org/2000/svg" xmlns:xlink="http://www.w3.org/1999/xlink" viewBox="0 0 1181.891 714.039"><defs><linearGradient id="Nepojmenovaný_přechod_23" x1="719.01" y1="691.246" x2="736.969" y2="691.246" gradientUnits="userSpaceOnUse"><stop offset=".092" stop-color="#fec3e3"/><stop offset=".999" stop-color="#fff"/></linearGradient></defs><path d="M1020.16,403.893c-40.766,39.416-68.59,111.979-71.53,179.831-1.272,29.355.06,58.946-6.477,86.754l-1.094-74.199c-.303-20.532-2.379-40.433-6.594-61.295-11.082-58.851-39.439-99.96-77.454-140.32l-34.331-36.448c-13.535-14.37-25.189-30.222-35.972-47.777-33.943-55.257-42.422-119.293-30.641-176.452,13.379-59.493,46.674-107.008,91.674-132.951-8.992,46.551,1.153,95.597,24.103,141.49l23.026,40.511c11.129,19.58,22.24,38.136,31.614,58.935,10.581,23.478,17.77,47.024,21.877,72.008,4.607,25.671,5.752,50.046,6.09,75.527,3.648-24.399,7.693-47.791,14.588-70.39,5.874-20.123,13.769-37.842,24.294-54.136,22.758-34.062,55.36-54.981,94.71-59.563-3.912,14.633-5.092,29.366-4.553,45.489.612,18.35.457,35.864-1.877,53.226-4.014,30.419-15.493,55.321-34.003,73.218l-27.45,26.542ZM894.026,245.183c7.743,18.534,10.929,36.514,13.238,54.873l1.931,29.997c1.09,16.923,1.708,33.072,4.011,50.191,2.845,21.152,8.112,41.268,15.208,61.975,6.799,19.838,11.709,38.706,14.522,59.241l1.231-51.069c.707-29.335.658-58.097-1.568-88.063-3.673-49.455-15.955-97.042-41.063-141.526l-25.288-44.804c-29.676-50.275-45.526-101.774-38.347-156.964-50.271,38.436-82.257,107.633-74.486,188.888,3.094,35.347,14.496,69.048,33.281,99.635,8.308,13.529,16.674,26.04,26.902,37.427l35.756,39.808c27.534,30.654,51.546,57.91,68.219,99.813,7.223,18.153,10.895,36.03,14.545,55.167,1.386-16.006-5.741-58.65-10.692-72.837l-12.403-35.538c-8.316-23.826-13.64-47.205-15.687-71.56l-2.294-53.996c-.874-20.576-2.976-40.583-7.016-60.658ZM968.247,407.149c-3.228,7.637-7.679,13.436-12.782,19.011l-2.522,48.197-2.793,64.384c10.084-68.305,31.528-111.674,72.376-152.996l22.364-22.624c13.293-14.946,21.963-34.095,26.088-56.864,3.166-17.3,3.934-34.788,4.083-53.202.105-13.02.745-25.154,3.821-37.348-46.484,12.277-79.589,48.476-98.952,100.15-8.104,21.628-14.559,43.784-18.134,68.063l-5.352,36.346c7.44-10.999,12.287-22.926,17.065-35.709l15.008-40.155c9.499-25.415,28.69-50.004,52.033-55.986-15.94,11.027-29.198,25.5-39.5,44.216l-15.562,33.731-17.24,40.786Z" fill="#fec3e3"/><path d="M941.686,674.774l-1.157-78.486c-.307-20.769-2.46-40.787-6.583-61.198-11.992-63.681-44.249-104.95-77.321-140.062l-34.33-36.448c-12.841-13.633-24.629-29.289-36.038-47.863-16.491-26.847-27.439-56.355-32.538-87.705-4.841-29.763-4.225-59.751,1.831-89.132,6.644-29.544,18.103-56.205,34.062-79.251,15.825-22.853,35.294-41.039,57.865-54.052l1.004-.579-.22,1.137c-8.481,43.912-.163,92.722,24.057,141.153l23.013,40.486c1.766,3.107,3.531,6.188,5.289,9.255,9.489,16.56,18.451,32.201,26.348,49.724,10.653,23.639,17.822,47.236,21.916,72.14,4.399,24.511,5.585,47.692,5.996,69.268,3.68-23.856,7.559-44.22,13.654-64.201,5.936-20.332,13.903-38.085,24.357-54.268,23.097-34.57,55.977-55.247,95.092-59.801l.774-.09-.201.752c-3.669,13.725-5.11,28.13-4.536,45.334.49,14.664.719,33.976-1.882,53.314-4.064,30.804-15.558,55.542-34.159,73.528l-27.45,26.541-.368-.38.368.38c-39.7,38.386-68.381,110.511-71.369,179.474-.315,7.275-.472,14.682-.625,21.844-.461,21.653-.937,44.044-5.865,65.009l-.981,4.173ZM847.005,2.077c-22.01,12.892-41.022,30.771-56.524,53.156-15.881,22.933-27.286,49.47-33.898,78.871-6.028,29.245-6.641,59.104-1.82,88.738,5.077,31.213,15.977,60.592,32.396,87.321,11.37,18.511,23.116,34.111,35.906,47.691l34.33,36.448c33.182,35.229,65.548,76.642,77.589,140.585,4.135,20.469,6.295,40.55,6.603,61.384l1.026,69.632c3.993-19.562,4.434-40.267,4.861-60.335.152-7.168.31-14.581.626-21.867,2.999-69.215,31.809-141.627,71.691-180.188l27.45-26.541c18.424-17.815,29.812-42.344,33.845-72.906,2.591-19.262,2.362-38.517,1.874-53.14-.568-16.996.822-31.287,4.371-44.888-38.457,4.698-70.797,25.17-93.559,59.239-10.392,16.089-18.318,33.751-24.226,53.989-6.605,21.651-10.603,43.77-14.573,70.321l-1.053-.071c-.31-23.308-1.261-48.58-6.082-75.44-4.08-24.819-11.223-48.33-21.839-71.884-7.876-17.476-16.826-33.096-26.301-49.633-1.759-3.069-3.524-6.151-5.29-9.258l-23.026-40.511c-24.129-48.248-32.544-96.866-24.38-140.712ZM942.316,543.63l-.717-3.758c-3.727-19.533-7.392-37.16-14.517-55.071-17.01-42.751-41.837-70.391-68.121-99.654l-35.757-39.808c-10.942-12.183-19.768-25.795-26.959-37.504-19.049-31.018-30.271-64.617-33.357-99.866-3.714-38.843,1.651-77.141,15.516-110.749,13.152-31.881,33.615-59.062,59.177-78.606l1.01-.773-.164,1.261c-6.584,50.605,5.937,101.838,38.277,156.627l25.294,44.813c23.712,42.012,37.166,88.377,41.13,141.747,2.47,33.275,2.136,64.569,1.569,88.115l-1.231,51.069-1.053.059c-2.622-19.139-7.229-37.932-14.498-59.141-7.729-22.552-12.568-42.278-15.231-62.076-1.827-13.584-2.58-26.304-3.378-39.771-.205-3.462-.411-6.943-.638-10.457l-1.931-29.997c-1.959-15.578-4.691-32.284-11.122-49.461,3.159,17.196,5.113,35.315,5.957,55.189l2.293,53.996c1.978,23.519,7.1,46.884,15.659,71.408l12.403,35.538c4.776,13.684,12.148,56.569,10.721,73.058l-.331,3.812ZM837.217,20.229c-24.944,19.371-44.927,46.105-57.835,77.392-13.799,33.45-19.138,71.573-15.439,110.249,3.071,35.088,14.242,68.532,33.205,99.409,7.166,11.668,15.959,25.23,26.844,37.351l35.757,39.808c26.348,29.335,51.236,57.044,68.316,99.97,6.607,16.605,10.246,32.936,13.705,50.748.044-18.661-6.486-55.565-10.843-68.048l-12.403-35.538c-8.589-24.609-13.73-48.06-15.716-71.691l-2.294-54.018c-.934-21.969-3.225-41.783-7.006-60.576l1.007-.308c7.993,19.133,11.105,37.747,13.275,55.011l1.935,30.029c.226,3.516.433,6.998.638,10.463.796,13.447,1.548,26.147,3.369,39.692,2.655,19.728,7.479,39.389,15.184,61.874,6.52,19.02,10.904,36.107,13.641,53.24l1.082-44.91c.567-23.522.901-54.783-1.565-88.012-3.952-53.21-17.362-99.432-40.996-141.304l-25.289-44.804c-32.19-54.535-44.815-105.592-38.571-156.029ZM950.674,538.819l-1.052-.1,2.793-64.384,2.532-48.391.128-.14c4.331-4.732,9.225-10.674,12.685-18.86l17.241-40.786,15.569-33.747c9.623-17.487,21.77-31.438,37.084-42.588-19.663,6.565-38.509,27.656-48.641,54.765l-15.008,40.155c-4.441,11.882-9.421,24.434-17.123,35.82l-1.3,1.922,5.691-38.641c3.26-22.141,9.031-43.803,18.162-68.172,20.199-53.908,54.541-88.652,99.312-100.477l.868-.229-.22.87c-3.182,12.609-3.709,25.342-3.805,37.224-.129,16.005-.717,34.853-4.092,53.293-4.173,23.037-12.992,42.255-26.213,57.121l-22.383,22.645c-41.486,41.97-62.412,86.21-72.228,152.701ZM955.984,426.378l-2.512,48.008-2.388,55.06c10.406-61.666,31.355-103.897,71.066-144.072l22.364-22.624c13.071-14.698,21.806-33.743,25.944-56.587,3.361-18.361,3.946-37.152,4.074-53.112.095-11.674.605-24.171,3.622-36.601-44.005,11.95-77.783,46.367-97.727,99.593-9.105,24.297-14.858,45.89-18.107,67.955l-5.004,33.985c6.903-10.757,11.537-22.478,15.698-33.61l15.008-40.155c10.769-28.812,31.336-50.916,52.398-56.314l2.863-.734-2.431,1.682c-16.406,11.35-29.274,25.754-39.337,44.036l-15.545,33.698-17.234,40.77-.487-.206.487.206c-3.488,8.253-8.391,14.246-12.75,19.022Z" fill="#fff"/><path d="M894.026,245.183c4.039,20.075,6.141,40.082,7.016,60.658l2.294,53.996c2.047,24.356,7.372,47.734,15.687,71.56l12.403,35.538c4.951,14.187,12.078,56.831,10.692,72.837-3.651-19.137-7.323-37.014-14.545-55.167-16.673-41.903-40.685-69.159-68.219-99.813l-35.756-39.808c-10.229-11.388-18.594-23.899-26.902-37.427-18.784-30.587-30.187-64.288-33.281-99.635-7.771-81.256,24.214-150.453,74.486-188.888-7.18,55.191,8.671,106.689,38.347,156.964l25.288,44.804c25.108,44.484,37.39,92.07,41.063,141.526,2.225,29.966,2.275,58.728,1.568,88.063l-1.231,51.069c-2.813-20.535-7.723-39.403-14.522-59.241-7.096-20.707-12.363-40.823-15.208-61.975-2.303-17.12-2.921-33.268-4.011-50.191l-1.931-29.997c-2.309-18.359-5.495-36.339-13.238-54.873Z" fill="#fec3e3"/><path d="M942.316,543.63l-.717-3.758c-3.727-19.533-7.392-37.16-14.517-55.071-17.01-42.751-41.837-70.391-68.121-99.654l-35.757-39.808c-10.942-12.183-19.768-25.795-26.959-37.504-19.049-31.018-30.271-64.617-33.357-99.866-3.714-38.843,1.651-77.141,15.516-110.75,13.152-31.88,33.615-59.062,59.176-78.605l1.01-.773-.164,1.261c-6.584,50.605,5.937,101.838,38.277,156.627l25.294,44.813c23.712,42.012,37.166,88.377,41.13,141.747,2.47,33.275,2.136,64.569,1.569,88.115l-1.231,51.069-1.053.059c-2.622-19.139-7.229-37.932-14.498-59.141-7.728-22.553-12.568-42.278-15.231-62.076-1.827-13.584-2.58-26.304-3.378-39.771-.205-3.462-.411-6.943-.638-10.457l-1.931-29.997c-1.959-15.578-4.691-32.284-11.122-49.46,3.159,17.196,5.113,35.315,5.957,55.189l2.293,53.996c1.978,23.519,7.1,46.884,15.659,71.408l12.403,35.538c4.776,13.684,12.148,56.569,10.721,73.058l-.331,3.812ZM837.217,20.229c-24.944,19.371-44.927,46.105-57.835,77.393-13.799,33.449-19.138,71.573-15.439,110.249,3.071,35.088,14.242,68.532,33.205,99.409,7.166,11.668,15.959,25.23,26.844,37.351l35.757,39.808c26.348,29.336,51.236,57.044,68.316,99.97,6.607,16.605,10.246,32.936,13.705,50.748.044-18.661-6.487-55.565-10.843-68.048l-12.403-35.538c-8.589-24.609-13.73-48.06-15.716-71.691l-2.294-54.018c-.934-21.969-3.225-41.783-7.006-60.576l1.007-.308c7.993,19.133,11.105,37.747,13.275,55.011l1.935,30.029c.226,3.516.433,6.998.638,10.463.796,13.447,1.548,26.147,3.369,39.692,2.655,19.728,7.479,39.389,15.184,61.874,6.52,19.02,10.904,36.107,13.641,53.24l1.082-44.91c.567-23.522.901-54.783-1.565-88.012-3.952-53.21-17.362-99.432-40.996-141.304l-25.289-44.804c-32.19-54.535-44.815-105.592-38.571-156.029Z" fill="#fff"/><path d="M968.247,407.149l17.24-40.786,15.562-33.731c10.302-18.716,23.56-33.189,39.5-44.216-23.343,5.983-42.534,30.572-52.033,55.986l-15.008,40.155c-4.778,12.783-9.625,24.71-17.065,35.709l5.352-36.346c3.575-24.279,10.03-46.436,18.134-68.063,19.363-51.675,52.468-87.873,98.952-100.15-3.076,12.194-3.716,24.328-3.821,37.348-.149,18.414-.917,35.902-4.083,53.202-4.125,22.77-12.795,41.919-26.088,56.864l-22.364,22.624c-40.847,41.323-62.292,84.692-72.376,152.996l2.793-64.384,2.522-48.197c5.102-5.576,9.554-11.374,12.782-19.011Z" fill="#fec3e3"/><path d="M950.674,538.819l-1.052-.1,2.793-64.384,2.532-48.391.128-.14c4.331-4.732,9.225-10.674,12.685-18.86l17.241-40.786,15.569-33.747c9.625-17.49,21.775-31.444,37.094-42.595-9.778,3.239-19.374,9.982-27.926,19.657-8.493,9.608-15.853,22.079-20.726,35.115l-15.008,40.155c-4.441,11.882-9.421,24.434-17.123,35.82l-1.3,1.922,5.691-38.641c3.26-22.141,9.031-43.803,18.162-68.172,20.2-53.908,54.542-88.652,99.313-100.477l.868-.229-.22.871c-3.182,12.609-3.709,25.342-3.805,37.223-.129,16.005-.717,34.853-4.092,53.293-4.173,23.037-12.992,42.255-26.213,57.121l-22.383,22.645c-41.487,41.97-62.412,86.21-72.228,152.701ZM955.984,426.378l-2.512,48.008-2.388,55.06c10.406-61.666,31.355-103.897,71.066-144.072l22.364-22.624c13.071-14.698,21.806-33.743,25.944-56.587,3.361-18.36,3.946-37.151,4.074-53.111.095-11.674.605-24.171,3.622-36.601-44.005,11.95-77.783,46.367-97.727,99.593-9.105,24.297-14.858,45.89-18.107,67.955l-5.004,33.985c6.903-10.756,11.537-22.478,15.698-33.61l15.008-40.155c10.769-28.812,31.336-50.916,52.398-56.314l2.863-.734-2.431,1.682c-16.406,11.35-29.274,25.754-39.337,44.036l-15.545,33.698-17.234,40.77-.487-.206.487.206c-3.488,8.253-8.391,14.246-12.75,19.022Z" fill="#fff"/><path d="M766.775,456.477c-13.032,28.454-25.93,55.61-40.869,82.629-16.382,29.629-41.946,66.416-70.436,83.921-14.765,9.072-32.742,12.044-49.132,6.984-13.239-4.087-21.471-15.651-21.5-29.449-.08-37.753,33.321-80.195,61.491-104.929,30.963-28.496,67.843-50.489,110.963-53.903,9.201-22.646,19.627-43.823,26.685-68.834-16.149,16.722-29.793,33.837-46.864,48.569-15.937,14.329-40.811,35.793-58.946,22.073-12.893-9.754-9.783-33.43-3.38-49.594,12.469-31.475,31.144-59.787,54.263-84.535,8.746-9.363,17.816-16.958,28.734-23.528,15.195-9.143,35.283-10.028,49.424,1.334,8.848,7.109,12.319,27.643,5.075,32.802-1.362.97-5.063,1.683-5.911-.648-2.141-5.884-2.053-12.391-6.51-17.466-4.995-5.688-13.657-9.866-21.547-8.839-8.928,1.162-16.547,5.939-23.337,12.013-28.583,25.567-51.28,57.361-66.23,92.672-7.458,17.615-7.251,38.652,3.701,36.919,18.005-2.85,49.445-35.731,64.171-51.44,14.421-15.384,28.298-30.44,40.381-47.684,2.106-3.006,4.068-4.883,7.97-3.929,2.803.685,4.945,4.845,3.888,8.45l-9.211,31.42-26.397,69.963,12.143,3.139c3.692.954,3.947,6.257,2.165,9.655-4.092,7.8-11.469.312-20.782,2.236ZM786.467,452.088c.538-1.45.717-5.027-1.264-5.511l-14.681-3.589,26.52-69.512,10.193-34.266c.805-2.707-1.267-5.61-3.195-5.998-2.663-.536-3.868.956-5.346,3.131-11.183,16.449-24.174,30.953-37.937,45.285l-19.082,19.872c-10.988,11.443-22.721,21.492-36.093,30.137-4.839,3.128-10.599,5.773-16.362,4.546-11.715-2.495-7.675-26.547-1.278-41.336,13.715-31.707,33.65-60.159,58.246-84.361,6.278-6.178,12.283-11.154,19.773-15.459,12.598-7.241,28.622-4.267,36.969,7.725,3.328,4.781,3.058,10.719,5.268,15.932.951,1.922,5.405-1.083,5.735-3.345,2.32-15.885-4.664-29.479-20.771-33.188-10.182-2.345-20.216-1.835-29.671,2.847-9.718,4.812-18.021,10.917-26.022,18.693-26.116,25.38-46.689,56.078-60.492,89.82-6.241,15.257-10.196,37.772,1.641,47.768,6.817,5.757,16.537,5.762,24.458,2.162,21.221-9.646,46.416-35.72,62.713-53.816l23.813-26.246c-8.601,28.118-19.724,53.972-31.151,80.222-41.615,2.946-80.229,24.903-110.232,52.992-27.828,24.24-60.172,64.966-61.607,102.068-.545,14.083,7.763,25.993,21.379,29.899,15.291,4.386,31.66,1.72,45.476-6.514,12.168-7.252,21.893-16.833,31.398-27.314,15.525-17.118,27.733-35.587,38.973-55.855,15.411-27.79,28.818-55.901,41.907-84.7,11.008-1.32,17.767,5.875,20.724-2.089ZM784.08,372.327l-.474.474.474.474.474-.474-.474-.474Z" fill="#fec3e3"/><path d="M622.853,633.284c-5.687,0-11.33-.825-16.755-2.5-13.377-4.129-22.041-15.992-22.071-30.221-.08-37.799,33.223-80.477,61.767-105.539,35.561-32.726,72.884-50.918,110.935-54.062,2.432-5.971,4.983-11.926,7.453-17.691,6.426-14.998,13.058-30.479,18.098-47.436-4.642,4.884-9.124,9.821-13.478,14.617-10.2,11.236-19.833,21.848-31.161,31.624-14.234,12.798-40.753,36.642-59.965,22.106-6.01-4.547-9.208-12.513-9.247-23.036-.031-8.411,2.011-18.435,5.603-27.502,12.11-30.567,30.421-59.094,54.424-84.79,9.13-9.775,18.316-17.296,28.907-23.669,16.626-10.005,36.859-9.443,50.349,1.397,6.322,5.08,9.498,15.923,9.277,23.547-.144,4.956-1.65,8.702-4.239,10.546-1.149.819-3.429,1.381-5.099.86-1-.311-1.707-.965-2.044-1.891-.718-1.972-1.192-4.02-1.651-6.001-.947-4.086-1.842-7.946-4.705-11.207-5.236-5.962-13.806-9.487-20.834-8.571-7.74,1.006-15.018,4.76-22.902,11.813-28.336,25.345-51.167,57.291-66.024,92.384-5.596,13.217-6.701,28.38-2.462,33.799,1.312,1.678,3.094,2.353,5.291,2.004,18.455-2.922,52.515-39.255,63.706-51.194,15.079-16.087,28.52-30.772,40.308-47.594,1.941-2.769,4.219-5.379,8.826-4.251,1.407.344,2.73,1.436,3.629,2.997,1.137,1.972,1.452,4.39.843,6.467l-9.212,31.42-26.098,69.177,11.269,2.913c1.46.377,2.575,1.352,3.226,2.818,1,2.255.781,5.469-.545,7.997-2.73,5.202-6.961,4.275-11.444,3.295-2.847-.624-6.057-1.328-9.493-.718-12.035,26.268-25.298,54.406-40.723,82.305-12.75,23.059-38.892,64.662-70.722,84.219-10.274,6.313-21.744,9.567-33.039,9.567ZM784.506,373.993c-5.142,17.954-12.101,34.199-18.834,49.915-2.531,5.906-5.147,12.013-7.63,18.125l-.188.463-.498.039c-37.852,2.997-75.023,21.062-110.478,53.692-28.302,24.851-61.309,67.076-61.23,104.331.029,13.504,8.244,24.76,20.93,28.677,15.752,4.862,33.418,2.348,48.468-6.9,31.514-19.362,57.48-60.703,70.152-83.622,15.473-27.986,28.773-56.226,40.841-82.575l.171-.373.402-.083c3.922-.811,7.451-.037,10.566.645,4.522.991,7.507,1.644,9.662-2.465,1.091-2.081,1.297-4.789.499-6.588-.449-1.012-1.172-1.654-2.149-1.906l-13.017-3.364,26.715-70.807,9.193-31.362c.487-1.662.229-3.606-.692-5.203-.68-1.18-1.631-1.994-2.611-2.233-3.306-.807-4.993.581-7.115,3.608-11.849,16.91-25.33,31.64-40.453,47.773-19.589,20.896-47.601,48.989-64.635,51.686-2.786.442-5.143-.46-6.82-2.605-4.64-5.933-3.653-21.495,2.247-35.429,14.95-35.312,37.923-67.457,66.436-92.96,8.028-7.181,15.804-11.176,23.773-12.213,7.539-.981,16.689,2.765,22.26,9.108,3.132,3.567,4.115,7.808,5.067,11.91.448,1.934.911,3.933,1.596,5.813.162.445.489.739,1.002.898,1.202.375,2.953-.116,3.678-.633.335-.239.65-.52.941-.841-.944.809-2.066,1.406-3.003,1.554-1.045.167-1.875-.208-2.279-1.025-.948-2.233-1.453-4.544-1.94-6.779-.712-3.263-1.385-6.345-3.267-9.049-7.971-11.45-23.406-14.668-35.901-7.486-6.783,3.899-12.648,8.485-19.608,15.334-25.06,24.659-44.598,52.956-58.071,84.106-5.086,11.759-8.336,28.435-4.34,36.179,1.141,2.213,2.839,3.574,5.044,4.043,4.563.973,9.569-.437,15.753-4.434,12.643-8.175,24.401-17.994,35.948-30.018l19.081-19.872c12.082-12.582,26.027-27.788,37.851-45.18,1.322-1.942,2.816-4.142,6.177-3.47,1.175.236,2.347,1.159,3.135,2.47.864,1.435,1.111,3.094.677,4.553l-10.193,34.266-26.212,68.712,13.789,3.371c.723.177,1.309.653,1.694,1.378.83,1.565.572,4.028.137,5.201h0c-2.027,5.457-5.958,4.585-10.51,3.575-2.851-.633-6.376-1.415-10.426-1.013-11.347,24.954-25.167,54.442-41.745,84.338-12.576,22.677-24.994,40.474-39.082,56.006-8.86,9.769-18.818,19.858-31.582,27.465-14.27,8.506-31.079,10.912-46.114,6.597-13.91-3.99-22.532-16.043-21.965-30.709,1.44-37.231,34.236-78.564,61.884-102.647,33.64-31.494,72.769-50.364,110.217-53.154,9.949-22.856,21.137-48.606,29.839-76.195l-21.354,23.536c-26.039,28.915-46.64,46.582-62.977,54.009-9.07,4.123-18.77,3.249-25.316-2.28-11.952-10.092-8.476-32.539-1.869-48.693,13.826-33.799,34.808-64.953,60.677-90.094,8.375-8.139,16.709-14.125,26.228-18.838,9.026-4.468,19.189-5.449,30.212-2.91,15.231,3.508,23.4,15.861,21.602,32.435.243-1.121.387-2.365.426-3.715.213-7.335-2.973-17.658-8.672-22.237-12.963-10.417-32.454-10.927-48.499-1.272-10.459,6.294-19.533,13.726-28.559,23.387-23.864,25.547-42.067,53.903-54.102,84.28-9.747,24.605-5.458,42.163,3.116,48.65,18.146,13.728,44.017-9.533,57.916-22.03,11.266-9.722,20.867-20.299,31.033-31.498,4.858-5.351,9.874-10.876,15.102-16.317l-.245-.245,1.62-1.618.215.216,1.335-1.381-.598,2.117.667.667-1.194,1.193ZM791.436,360.152l-1.06,3.464c-8.926,29.177-20.75,56.342-31.183,80.308l-.196.45-.49.034c-37.226,2.635-76.198,21.378-109.736,52.776-27.426,23.89-59.931,64.792-61.351,101.508-.538,13.894,7.624,25.313,20.793,29.089,14.608,4.189,30.952,1.845,44.837-6.432,12.582-7.499,22.437-17.487,31.213-27.163,14.001-15.437,26.35-33.137,38.864-55.703,16.644-30.012,30.51-59.629,41.878-84.642l.189-.415.452-.054c4.52-.541,8.345.308,11.42.99,4.925,1.093,7.168,1.411,8.642-2.557.345-.93.492-2.855-.05-3.878-.222-.418-.476-.522-.648-.564l-15.573-3.807,26.847-70.369,10.173-34.208c.304-1.023.118-2.21-.512-3.256-.541-.9-1.352-1.573-2.067-1.717-2.074-.419-3.011.579-4.516,2.792-11.891,17.49-25.894,32.76-38.023,45.391l-19.081,19.872c-11.634,12.115-23.487,22.012-36.237,30.256-6.567,4.246-11.96,5.726-16.97,4.658-2.703-.576-4.771-2.22-6.146-4.885-3.233-6.264-2.796-21.179,4.293-37.565,13.556-31.342,33.212-59.811,58.421-84.617,7.064-6.951,13.027-11.612,19.937-15.584,13.23-7.605,29.583-4.18,38.038,7.965,2.067,2.969,2.805,6.354,3.519,9.628.472,2.163.96,4.399,1.83,6.45.011.022.088.175.554.101,1.42-.225,3.459-2.046,3.634-3.247,2.409-16.495-5.313-28.865-20.152-32.282-10.643-2.451-20.447-1.516-29.129,2.783-9.364,4.636-17.568,10.53-25.818,18.548-25.711,24.987-46.564,55.951-60.306,89.545-6.403,15.652-9.874,37.311,1.413,46.843,4.754,4.013,13.451,6.658,23.601,2.043,16.131-7.333,36.557-24.872,62.446-53.621l26.249-28.931Z" fill="#fec3e3"/><path d="M911.565,464.992c-22.477,42.198-47.956,91.116-79.366,126.385-9.758,10.957-19.947,20.315-32.151,28.53-14.963,10.072-32.886,14.184-50.589,9.923-11.31-2.722-20.143-11.665-21.801-23.184-1.393-9.683-.148-19.235,3.41-28.607,11.755-30.96,32.155-57.354,58.265-77.727,32.455-25.69,71.068-44.582,112.879-49.087l30.607-66.998c-23.279,21.187-47.212,39.791-73.323,56.215-6.216,3.59-11.958,6.613-19.015,7.37-8.84.949-15.695-4.008-18.639-12.601-3.695-10.785-1.613-22.706,2.591-33.599,11.716-30.355,30.653-50.503,43.079-80.904,5.191-12.7-1.078-25.805,8.472-27.26,14.19-2.162,10.297,30.947-.95,49.139l-22.032,35.636-13.283,25.638c-3.688,7.118-6.069,23.747-1.595,27.438,1.617,1.334,4.837,1.944,7.12.918,24.226-10.896,67.588-52.106,88.974-73.092,5.723-5.616,10.236-11.196,14.729-17.778,2.864-4.195,10.744-4.278,13.31-.035-3.454,15.119-8.011,29.579-14.339,43.868l-28.911,65.284c6.957,1.125,13.736.848,19.907,3.678,3.641,1.67,2.989,6.479,1.546,9.153-4.145,7.676-15.76-.68-28.894,1.698ZM859.45,552.258c18.895-28.877,35.133-58.617,50.89-89.067,8.939-1.006,16.616.41,24.954,1.715,3.387.53,6.335-6.87,3.341-8.564-6.99-3.953-14.986-3.129-22.717-4.007l29.55-65.986,15.095-44.57c-2.301-2.104-7.305-2.699-9.433-.076l-14.119,17.405c-21.975,21.736-64.916,62.443-89.973,74.54-3.024,1.46-6.694,1.411-9.287-.195-6.861-4.249-3.536-23.836,1.387-33.101l12.84-24.162,22.044-35.652c10.058-16.267,13.488-45.933,2.967-45.443-2.711.126-5.174,2.428-5.233,5.433l-.253,13.017c-2.762,11.612-8.115,21.903-14.238,32.203l-22.893,38.505c-8.311,13.98-16.593,36.659-10.266,51.574,2.941,6.934,8.744,10.919,16.482,9.98,5.805-.704,11.026-3.173,16.06-6.159l32.201-21.847c17.493-12.28,32.484-25.918,49.132-41.282l-34.683,76.688c-43.082,4.023-83.759,24.748-116.235,51.432-23.22,18.958-41.348,42.569-52.835,70.262-3.564,8.592-5.536,17.26-5.407,26.394.178,12.595,7.996,22.914,20.224,26.399,13.462,3.837,27.837,2.128,40.529-4.119,27.606-13.587,52.83-45.273,69.874-71.322Z" fill="#fec3e3"/><path d="M763.498,632.306c-4.768,0-9.532-.558-14.229-1.689-11.944-2.874-20.742-12.238-22.413-23.855-1.378-9.581-.215-19.342,3.455-29.01,11.441-30.131,31.678-57.129,58.524-78.077,35.302-27.943,74.31-44.952,112.832-49.204l28.785-63.009c-23.213,20.862-46.319,38.442-70.525,53.667-6.306,3.644-12.095,6.71-19.36,7.49-9.044.973-16.338-3.942-19.491-13.144-3.302-9.637-2.427-21.127,2.601-34.153,6.036-15.64,14.122-28.812,21.942-41.55,7.432-12.106,15.116-24.624,21.143-39.369,2.096-5.128,2.274-10.297,2.431-14.858.221-6.408.411-11.943,6.668-12.896,3.175-.482,5.764.651,7.499,3.276,5.976,9.04.796,33.449-7.638,47.09l-22.032,35.636-13.252,25.585c-3.545,6.841-5.85,23.098-1.799,26.44,1.346,1.109,4.252,1.713,6.272.804,21.997-9.892,60.398-45.121,88.74-72.931,5.389-5.288,9.9-10.734,14.627-17.657,1.549-2.267,4.536-3.614,7.788-3.531,3.023.084,5.597,1.404,6.885,3.534l.17.28-.073.319c-3.66,16.02-8.366,30.418-14.388,44.016l-28.483,64.315c1.747.25,3.496.427,5.196.599,4.866.492,9.462.958,13.879,2.984,1.367.627,2.342,1.713,2.82,3.142.833,2.491.036,5.398-.9,7.131-2.648,4.906-7.994,3.956-14.184,2.857-4.486-.797-9.553-1.697-14.893-.814l-2.64,4.96c-21.789,40.949-46.484,87.362-76.65,121.235-10.494,11.783-20.759,20.89-32.304,28.663-11.488,7.733-24.254,11.727-37.002,11.727ZM923.539,406.492l-20.781,45.489-.458.05c-38.368,4.133-77.257,21.049-112.463,48.916-26.617,20.77-46.677,47.526-58.012,77.379-3.572,9.409-4.705,18.898-3.365,28.205,1.577,10.957,9.894,19.793,21.189,22.512,16.802,4.043,34.541.562,49.947-9.808,11.429-7.694,21.597-16.718,31.998-28.397,30.036-33.727,54.684-80.049,76.43-120.918l3.011-5.656.386-.07c5.765-1.043,11.121-.092,15.849.747,3.407.605,6.076,1.026,8.144.794-.082-.006-.163-.016-.244-.029l-1.892-.299c-7.424-1.176-14.444-2.289-22.417-1.458-13.791,26.637-30.591,57.969-50.732,88.752-16.317,24.937-41.74,57.602-70.194,71.605-13.183,6.49-27.784,7.971-41.109,4.172-12.46-3.552-20.629-14.216-20.813-27.167-.125-8.805,1.665-17.543,5.469-26.716,11.34-27.339,29.196-51.086,53.071-70.579,35.907-29.505,77.155-47.806,116.202-51.567l20.785-45.957ZM940.363,373.223l-36.52,80.751-.469.044c-38.867,3.63-79.991,21.831-115.796,51.252-23.668,19.324-41.364,42.857-52.601,69.947-3.719,8.964-5.467,17.492-5.346,26.072.173,12.22,7.881,22.28,19.636,25.632,12.942,3.689,27.128,2.245,39.95-4.066,28.126-13.842,53.348-46.271,69.554-71.039l.678.443-.678-.443c20.199-30.871,37.04-62.312,50.849-88.996l.199-.384.43-.048c8.367-.941,15.611.207,23.281,1.421l1.888.298c1.338.213,2.69-1.504,3.288-3.222.517-1.485.572-3.247-.47-3.837-4.993-2.824-10.463-3.127-16.254-3.447-2.019-.112-4.107-.227-6.156-.46l-1.1-.125,30.002-66.997,14.888-43.967c-1.22-.888-3.049-1.385-4.727-1.262-.959.072-2.279.377-3.131,1.425l-14.118,17.405c-23.034,22.792-65.303,62.715-90.25,74.759-3.304,1.596-7.257,1.505-10.065-.235-7.542-4.671-3.795-24.959,1.099-34.169l12.84-24.161,22.07-35.698c7.854-12.702,11.768-34.653,7.479-41.943-.94-1.599-2.169-2.341-3.786-2.265-2.412.112-4.414,2.194-4.461,4.64l-.274,13.189c-2.901,12.198-8.602,22.794-14.329,32.429l-22.893,38.505c-12.815,21.553-14.365,41.066-10.217,50.844,2.92,6.883,8.617,10.347,15.639,9.492,6.176-.749,11.658-3.627,15.743-6.051l32.16-21.821c16.975-11.917,31.636-25.149,49.037-41.207l2.931-2.704ZM917.114,451.645c1.651.155,3.327.248,4.958.338,5.722.317,11.639.644,16.961,3.655,1.632.922,2.104,3.191,1.204,5.78-.506,1.453-1.451,2.91-2.658,3.707.886-.455,1.601-1.167,2.168-2.216.843-1.562,1.415-3.976.789-5.847-.338-1.008-.996-1.742-1.959-2.184-4.173-1.914-8.639-2.365-13.366-2.844-2.061-.208-4.193-.424-6.332-.77l-1.037-.168,29.337-66.244c5.78-13.052,10.34-26.851,13.923-42.135l-14.867,43.893-29.12,65.035ZM825.637,400.758c-.15.38-.301.763-.448,1.146-4.887,12.661-5.755,23.779-2.58,33.045,2.89,8.435,9.532,12.942,17.787,12.058,6.95-.746,12.578-3.732,18.696-7.266,25.111-15.795,49.059-34.155,73.183-56.113l2.727-2.482.601-1.33c-16.185,14.895-30.182,27.345-46.288,38.652l-32.212,21.854c-4.264,2.532-9.94,5.508-16.416,6.293-7.792.945-14.101-2.871-17.325-10.468-4.239-9.994-2.161-23.281,2.275-35.39ZM877.242,294.283c2.071,0,3.784,1.056,4.968,3.068,4.614,7.842.76,30.262-7.498,43.616l-22.044,35.652-12.814,24.116c-4.982,9.373-7.826,28.223-1.676,32.032,2.349,1.455,5.688,1.514,8.509.153,24.735-11.941,66.852-51.731,89.755-74.386l2.834-3.495c-1.441,1.589-2.929,3.133-4.49,4.665-28.435,27.903-66.995,63.262-89.21,73.252-2.686,1.207-6.226.405-7.967-1.031-5.02-4.142-2.145-21.611,1.391-28.435l13.283-25.638,22.063-35.689c8.839-14.298,12.78-37.606,7.664-45.344-1.4-2.119-3.333-2.958-5.903-2.568-2.283.348-3.54,1.389-4.257,3.163,1.065-1.777,2.964-3.023,5.103-3.123.098-.004.194-.007.29-.007ZM870.883,303.768c-.026.583-.049,1.194-.071,1.833-.162,4.696-.345,10.019-2.55,15.415-6.077,14.867-13.797,27.442-21.262,39.603-5.373,8.752-10.872,17.71-15.731,27.519.789-1.491,1.595-2.927,2.409-4.294l22.893-38.505c5.649-9.502,11.269-19.941,14.126-31.892l.187-9.678ZM955.758,338.975c-2.606,0-4.941,1.07-6.141,2.829-.87,1.273-1.731,2.497-2.593,3.679l3.477-4.288c.948-1.169,2.463-1.886,4.268-2.02,2.332-.173,4.817.615,6.341,2.008l.229.209c-1.068-1.456-3.02-2.35-5.316-2.413-.088-.002-.176-.004-.264-.004Z" fill="#fec3e3"/><path d="M546.528,399.217c-6.064,9.474-17.91,14.137-27.167,19.286-10.416,5.793-22.324,3.706-32.905,6.86-9.269,4.528-16.915,13.756-27.589,17.222-9.115,2.96-17.885,5.348-27.555,4.328-19.788-2.088-23.647-23.419-20.387-42.701,2.078-13.636,6.439-26.045,11.629-38.976,1.191-26.724,14.01-50.739,35.421-66.761,13.676-10.235,30.812-14.165,47.449-10.251,7.182,1.689,12.746,6.141,16.059,12.562,13.244,25.671,3.563,61.751-9.962,87.154l-15.338,25.726c3.067,1.696,5.43-.19,7.998-.759,21.373-4.738,33.567-17.903,48.14-33.13-2.159,6.664-2.282,13.954-5.793,19.44ZM481.531,412.816c22.57-22.16,45.09-69.179,34.866-98.342-3.426-9.77-11.42-15.211-21.843-15.288-13.024-.096-25.186,5.062-35.095,13.556,2.514,2.071,4.191,3.886,4.273,5.846.098,2.36-1.651,3.6-3.29,5.12-11.396,10.577-21.352,30.628-28.443,45.773,2.349,27.257,21.908,42.199,49.532,43.334ZM470.653,422.046c-3.266-2.062-4.847-2.183-7.018-2.728-17.008-4.268-30.537-15.131-38.423-31.887-3.63,11.359-6.03,22.593-4.46,33.727,1.231,8.723,7.515,13.895,16.149,13.416,12.365-.686,24.225-4.94,33.752-12.528Z" fill="#fec3e3"/><path d="M435.852,447.642c-1.512,0-3.041-.075-4.592-.239-6.607-.697-11.845-3.539-15.569-8.447-5.79-7.631-7.704-20.324-5.252-34.827,2.161-14.181,6.862-27.124,11.627-38.999,1.21-26.581,14.187-51.015,35.615-67.051,13.953-10.441,31.396-14.21,47.858-10.336,7.276,1.712,12.942,6.143,16.384,12.816,13.309,25.798,3.579,62.173-9.965,87.612l-15.077,25.289c1.854.816,3.438.235,5.109-.376.674-.247,1.37-.501,2.085-.66,20.732-4.596,32.85-17.265,46.882-31.935l2.499-2.612-.665,2.051c-.781,2.409-1.3,4.939-1.802,7.386-.909,4.428-1.768,8.609-4.045,12.168h0c-4.985,7.788-13.953,12.44-21.865,16.544-1.917.994-3.728,1.934-5.478,2.907-6.331,3.521-13.237,4.175-19.915,4.808-4.372.414-8.893.842-13.088,2.093-3.811,1.869-7.356,4.563-11.11,7.416-5.034,3.825-10.239,7.78-16.467,9.803-7.234,2.349-14.921,4.588-23.168,4.588ZM492.698,287.242c-12.165,0-24.24,4.006-34.425,11.628-21.212,15.874-34.051,40.071-35.224,66.388l-.035.162c-4.753,11.842-9.448,24.745-11.599,38.866-2.408,14.243-.562,26.659,5.064,34.074,3.553,4.682,8.561,7.395,14.887,8.062,9.81,1.036,18.892-1.559,27.35-4.307,6.069-1.971,11.207-5.875,16.175-9.65,3.794-2.883,7.377-5.605,11.35-7.546,4.364-1.308,8.934-1.741,13.353-2.16,6.577-.623,13.378-1.268,19.528-4.688,1.762-.98,3.579-1.923,5.503-2.92,8.183-4.245,16.645-8.635,21.488-16.2l.416.266-.416-.266c2.179-3.404,3.019-7.499,3.909-11.834.374-1.822.758-3.689,1.252-5.53-13.976,14.61-26.156,27.185-46.985,31.802-.651.144-1.287.377-1.96.623-1.844.675-3.935,1.44-6.383.086l-.446-.247,15.599-26.164c13.415-25.198,23.082-61.216,9.947-86.675-3.306-6.408-8.747-10.664-15.733-12.308-4.166-.98-8.396-1.462-12.615-1.462ZM435.826,435.097c-8.306,0-14.36-5.344-15.563-13.871-1.729-12.255,1.485-24.579,4.478-33.946l.382-1.196.535,1.136c7.701,16.362,20.875,27.296,38.096,31.618.336.084.658.159.975.231,1.728.398,3.36.773,6.187,2.558l.587.371-.543.433c-9.486,7.557-21.254,11.926-34.032,12.635-.371.021-.74.031-1.102.031ZM425.307,388.766c-2.846,9.108-5.696,20.773-4.066,32.322,1.196,8.483,7.196,13.463,15.632,12.992,12.324-.684,23.689-4.825,32.917-11.986-2.315-1.38-3.699-1.698-5.283-2.063-.322-.074-.651-.149-.993-.236-17.121-4.297-30.307-15.014-38.208-31.03ZM481.725,413.318l-.214-.009c-29.051-1.194-47.744-17.562-50.004-43.785l-.011-.131.056-.12c7.953-16.986,17.565-35.726,28.554-45.925.199-.184.399-.365.598-.543,1.401-1.261,2.611-2.351,2.534-4.195-.064-1.554-1.25-3.144-4.093-5.486l-.453-.373.446-.382c10.443-8.952,22.556-13.677,35.053-13.677.123,0,.244,0,.367.001,10.723.079,18.853,5.772,22.306,15.619,4.684,13.36,2.858,31.877-5.142,52.141-7.029,17.806-18.186,35.27-29.843,46.716l-.153.15ZM432.502,369.571c2.258,25.54,20.499,41.503,48.836,42.743,11.509-11.357,22.514-28.618,29.465-46.224,7.913-20.043,9.734-38.316,5.128-51.452-3.306-9.43-11.1-14.882-21.381-14.958-.12,0-.24-.001-.359-.001-12.082,0-23.806,4.509-33.965,13.06,2.077,1.756,3.91,3.674,3.999,5.829.096,2.308-1.407,3.661-2.861,4.969-.195.175-.392.353-.587.534-10.839,10.059-20.374,28.632-28.275,45.5Z" fill="#fec3e3"/><path d="M786.467,452.088c-2.957,7.964-9.716.769-20.724,2.089-13.089,28.798-26.496,56.909-41.907,84.7-11.239,20.268-23.448,38.737-38.973,55.855-9.505,10.48-19.23,20.062-31.398,27.314-13.816,8.234-30.185,10.9-45.476,6.514-13.616-3.905-21.923-15.815-21.379-29.899,1.435-37.102,33.779-77.829,61.607-102.068,30.004-28.089,68.617-50.046,110.232-52.992,11.427-26.251,22.55-52.105,31.151-80.222l-23.813,26.246c-16.297,18.096-41.492,44.17-62.713,53.816-7.921,3.601-17.641,3.595-24.458-2.162-11.837-9.996-7.882-32.511-1.641-47.768,13.802-33.742,34.376-64.44,60.492-89.82,8.001-7.776,16.304-13.881,26.022-18.693,9.455-4.682,19.489-5.191,29.671-2.847,16.108,3.709,23.091,17.303,20.771,33.188-.33,2.262-4.784,5.267-5.735,3.345-2.21-5.212-1.941-11.151-5.268-15.932-8.347-11.992-24.371-14.966-36.969-7.725-7.49,4.305-13.495,9.281-19.773,15.459-24.596,24.203-44.531,52.654-58.246,84.361-6.397,14.789-10.437,38.841,1.278,41.336,5.762,1.227,11.523-1.418,16.362-4.546,13.371-8.645,25.104-18.694,36.093-30.137l19.082-19.872c13.762-14.332,26.753-28.836,37.937-45.285,1.479-2.175,2.683-3.666,5.346-3.131,1.928.388,4.001,3.291,3.195,5.998l-10.193,34.266-26.52,69.512,14.681,3.589c1.981.484,1.803,4.061,1.264,5.511ZM609.598,617.69c14.838,5.764,30.61,2.146,43.05-6.897,29.605-21.522,55.127-64.694,72.868-97.582l28.126-58.333c-2.771.317-4.594.744-6.905.219-35.053,5.526-65.93,24.341-91.859,48.149-20.247,18.59-37.288,39.603-49.13,64.428-4.512,9.459-7.836,18.612-7.921,29.18-.067,8.266,3.281,17.539,11.77,20.836Z" fill="#ffc3e3"/><path d="M622.882,631.436c-5.128,0-10.215-.691-15.115-2.097-13.91-3.99-22.532-16.043-21.965-30.709,1.44-37.231,34.236-78.564,61.884-102.647,33.64-31.494,72.769-50.364,110.217-53.154,9.949-22.856,21.137-48.606,29.839-76.195l-21.354,23.536c-26.039,28.915-46.64,46.582-62.977,54.009-9.07,4.123-18.77,3.249-25.316-2.28-11.952-10.092-8.476-32.538-1.868-48.693,13.825-33.799,34.807-64.953,60.676-90.094,8.375-8.139,16.709-14.124,26.228-18.838,9.026-4.468,19.189-5.449,30.212-2.91,15.736,3.624,23.933,16.688,21.391,34.094-.303,2.071-3.039,4.305-4.983,4.613-1.052.167-1.875-.209-2.279-1.025-.948-2.232-1.453-4.544-1.94-6.779-.712-3.263-1.385-6.345-3.267-9.049-7.972-11.451-23.408-14.669-35.901-7.486-6.783,3.899-12.648,8.485-19.608,15.334-25.06,24.659-44.598,52.956-58.071,84.106-5.086,11.759-8.336,28.435-4.34,36.179,1.141,2.213,2.839,3.574,5.044,4.043,4.563.973,9.569-.437,15.753-4.434,12.643-8.175,24.401-17.994,35.948-30.018l19.081-19.872c12.082-12.582,26.027-27.788,37.851-45.18,1.322-1.942,2.816-4.142,6.177-3.47,1.175.236,2.347,1.159,3.135,2.47.864,1.435,1.111,3.094.677,4.553l-10.193,34.266-26.212,68.712,13.789,3.371c.723.177,1.309.653,1.694,1.378.83,1.565.572,4.028.137,5.201h0c-2.027,5.457-5.958,4.585-10.51,3.575-2.851-.633-6.376-1.415-10.426-1.013-11.347,24.954-25.167,54.442-41.745,84.338-12.576,22.677-24.994,40.474-39.082,56.006-8.86,9.769-18.818,19.858-31.582,27.465-9.619,5.733-20.393,8.694-30.998,8.694ZM791.436,360.152l-1.06,3.464c-8.926,29.177-20.75,56.342-31.184,80.308l-.195.45-.49.034c-37.226,2.635-76.198,21.378-109.736,52.776-27.426,23.89-59.931,64.792-61.351,101.508-.538,13.894,7.624,25.313,20.793,29.089,14.608,4.189,30.952,1.845,44.837-6.432,12.582-7.499,22.437-17.487,31.213-27.163,14.001-15.437,26.35-33.137,38.864-55.703,16.643-30.012,30.509-59.629,41.878-84.642l.188-.415.452-.054c4.52-.541,8.345.308,11.42.99,4.925,1.093,7.168,1.411,8.642-2.557.345-.93.492-2.855-.05-3.878-.222-.418-.476-.522-.648-.564l-15.573-3.807,26.847-70.369,10.173-34.208c.304-1.023.118-2.21-.512-3.256-.541-.9-1.352-1.573-2.067-1.717-2.074-.419-3.011.58-4.516,2.792-11.891,17.49-25.894,32.76-38.023,45.391l-19.081,19.872c-11.634,12.115-23.487,22.012-36.237,30.256-6.566,4.245-11.959,5.726-16.97,4.658-2.703-.576-4.771-2.22-6.146-4.885-3.233-6.264-2.796-21.179,4.293-37.565,13.556-31.342,33.212-59.811,58.421-84.617,7.064-6.951,13.027-11.612,19.937-15.584,13.23-7.605,29.583-4.18,38.038,7.965,2.067,2.969,2.805,6.354,3.519,9.628.472,2.163.96,4.399,1.83,6.45.011.022.088.175.554.101,1.42-.225,3.459-2.045,3.634-3.247,2.409-16.495-5.313-28.865-20.152-32.282-10.643-2.451-20.447-1.516-29.129,2.783-9.364,4.636-17.568,10.53-25.818,18.548-25.711,24.987-46.564,55.951-60.307,89.545-6.402,15.652-9.874,37.311,1.414,46.843,4.754,4.013,13.451,6.658,23.601,2.043,16.131-7.333,36.557-24.872,62.446-53.621l26.249-28.931ZM624.509,621.292c-5.172,0-10.296-.939-15.204-2.846-9.158-3.558-12.352-13.49-12.286-21.598.092-11.398,3.9-20.925,8-29.523,11.077-23.224,27.208-44.38,49.313-64.676,29.493-27.08,60.541-43.349,92.281-48.353l.154-.024.151.035c1.737.394,3.172.208,5.158-.05.464-.061.953-.124,1.475-.184l1.46-.167-28.764,59.657c-35.58,65.959-58.771,87.453-73.121,97.885-8.943,6.501-18.863,9.844-28.616,9.844ZM746.714,455.921c-31.367,4.981-62.079,21.103-91.286,47.922-21.949,20.152-37.96,41.146-48.947,64.18-4.02,8.428-7.752,17.755-7.842,28.837-.061,7.569,2.864,16.816,11.254,20.075h0c13.64,5.299,29.051,2.82,42.28-6.797,29.696-21.588,55.674-65.876,72.631-97.311l27.464-56.961c-2.009.261-3.61.468-5.554.055Z" fill="#ffc3e3"/><path d="M859.45,552.258c-17.045,26.049-42.268,57.736-69.874,71.322-12.692,6.247-27.067,7.956-40.529,4.119-12.228-3.486-20.046-13.804-20.224-26.399-.129-9.134,1.843-17.802,5.407-26.394,11.487-27.694,29.615-51.304,52.835-70.262,32.476-26.685,73.153-47.409,116.235-51.432l34.683-76.688c-16.649,15.364-31.639,29.002-49.132,41.282l-32.201,21.847c-5.033,2.986-10.254,5.455-16.06,6.159-7.738.938-13.541-3.046-16.482-9.98-6.326-14.915,1.955-37.594,10.266-51.574l22.893-38.505c6.124-10.3,11.476-20.591,14.238-32.203l.253-13.017c.058-3.005,2.521-5.307,5.233-5.433,10.521-.49,7.092,29.176-2.967,45.443l-22.044,35.652-12.84,24.162c-4.923,9.264-8.249,28.852-1.387,33.101,2.593,1.606,6.263,1.655,9.287.195,25.056-12.097,67.998-52.804,89.973-74.54l14.119-17.405c2.128-2.623,7.132-2.028,9.433.076l-15.095,44.57-29.55,65.986c7.731.878,15.728.054,22.717,4.007,2.995,1.694.046,9.094-3.341,8.564-8.338-1.305-16.015-2.721-24.954-1.715-15.758,30.45-31.996,60.19-50.89,89.067ZM756.491,618.687c12.73,2.198,24.715-.418,35.33-7.104,12.096-7.619,22.07-17.314,31.342-28.29,29.484-34.901,54.246-77.829,75.154-118.659l-8.737.611c-40.868,7.319-78.475,27.249-107.857,56.733-15.512,15.565-26.93,33.931-36.376,53.558-3.946,8.199-5.984,17.04-5.045,25.817.964,9.005,7.094,15.764,16.188,17.334Z" fill="#ffc3e3"/><path d="M763.717,630.541c-5.047,0-10.053-.682-14.892-2.062-12.46-3.552-20.629-14.216-20.813-27.167-.125-8.805,1.665-17.543,5.469-26.716,11.34-27.339,29.196-51.086,53.071-70.579,35.907-29.505,77.155-47.806,116.202-51.567l32.849-72.633c-16.185,14.895-30.182,27.345-46.288,38.652l-32.212,21.854c-4.264,2.532-9.94,5.508-16.416,6.293-7.792.945-14.101-2.871-17.325-10.468-6.387-15.056,1.565-37.586,10.316-52.304l22.893-38.505c5.649-9.502,11.269-19.941,14.126-31.892l.251-12.93c.064-3.282,2.759-6.076,6.005-6.226,2.205-.096,4.02.956,5.258,3.061,4.614,7.842.76,30.262-7.498,43.616l-22.044,35.652-12.814,24.116c-4.982,9.374-7.826,28.223-1.676,32.032,2.349,1.455,5.688,1.516,8.509.153,24.735-11.941,66.852-51.731,89.755-74.386l14.059-17.339c.948-1.169,2.463-1.886,4.268-2.02,2.332-.173,4.817.615,6.341,2.008l.39.357-15.265,45.071-29.12,65.035c1.651.155,3.327.248,4.958.338,5.722.317,11.639.644,16.961,3.655,1.632.922,2.104,3.191,1.204,5.779-.808,2.321-2.736,4.658-5.068,4.29l-1.892-.299c-7.424-1.176-14.444-2.289-22.417-1.458-13.791,26.637-30.591,57.969-50.732,88.752h0c-16.317,24.937-41.74,57.602-70.194,71.605-8.395,4.133-17.367,6.234-26.217,6.234ZM940.363,373.223l-36.52,80.751-.469.044c-38.867,3.63-79.991,21.831-115.796,51.252-23.668,19.324-41.364,42.857-52.601,69.947-3.719,8.964-5.467,17.492-5.346,26.072.173,12.22,7.881,22.28,19.637,25.632,12.939,3.692,27.128,2.245,39.949-4.066,28.126-13.842,53.348-46.271,69.554-71.039l.678.443-.678-.443c20.199-30.871,37.04-62.312,50.849-88.996l.199-.384.43-.049c8.366-.941,15.611.207,23.281,1.421l1.888.298c1.338.213,2.69-1.504,3.288-3.222.517-1.485.572-3.247-.47-3.837-4.993-2.824-10.463-3.127-16.254-3.447-2.019-.112-4.107-.227-6.156-.46l-1.1-.125,30.002-66.997,14.888-43.967c-1.22-.888-3.049-1.385-4.727-1.262-.959.072-2.279.377-3.131,1.425l-14.118,17.405c-23.034,22.792-65.303,62.715-90.25,74.759-3.304,1.596-7.257,1.505-10.065-.235-7.542-4.671-3.795-24.959,1.099-34.169l12.84-24.162,22.07-35.698c7.854-12.702,11.768-34.653,7.479-41.943-.94-1.599-2.169-2.341-3.786-2.265-2.412.112-4.414,2.194-4.461,4.64l-.274,13.189c-2.901,12.198-8.602,22.794-14.329,32.429l-22.893,38.505c-12.815,21.553-14.365,41.066-10.217,50.844,2.92,6.883,8.617,10.347,15.639,9.492,6.176-.749,11.658-3.627,15.743-6.051l32.16-21.821c16.975-11.917,31.636-25.149,49.037-41.207l2.931-2.704ZM765.324,620.269c-2.951,0-5.942-.261-8.971-.784h0c-9.378-1.62-15.836-8.535-16.855-18.046-.908-8.476.815-17.309,5.12-26.254,10.872-22.59,22.481-39.679,36.532-53.778,29.811-29.914,67.256-49.61,108.288-56.958l10.255-.722-.654,1.277c-26.371,51.498-50.284,89.252-75.255,118.811-10.586,12.531-20.604,21.572-31.53,28.453-8.453,5.324-17.48,8.001-26.93,8.001ZM756.628,617.888c12.323,2.13,24.018-.225,34.761-6.991,10.78-6.79,20.68-15.728,31.155-28.127,24.684-29.22,48.342-66.495,74.396-117.228l-7.305.511c-40.616,7.279-77.763,26.818-107.34,56.496-13.919,13.968-25.428,30.916-36.219,53.337-4.172,8.67-5.843,17.209-4.968,25.38.937,8.762,6.885,15.131,15.52,16.622h0Z" fill="#ffc3e3"/><path d="M186.364,207.095c-9.446,5.438-18.325,11.68-25.778,19.753-6.576,7.122-10.145,15.722-12.996,24.875-7.58,24.335,5.018,49.974,25.213,64.035,10.176,7.085,22.401,9.316,34.388,11.403,14.857,2.586,29.726,5.351,44.814,6.149,30.273,1.601,62.251-1.201,91.156-10.533,7.086-2.288,14.237-4.921,20.564-8.906,3.785-2.384,7.343-5.193,11.066-7.687,3.845-2.575,7.873-5.054,11.417-8.046,5.101-4.307,9.681-9.45,14.409-14.168,9.809-9.787,20.706-19.716,27.518-31.922,6.947-12.448,11.325-26.851,12.681-41.018,1.254-13.099,1.717-27.087-2.409-39.759-4.169-12.805-13.452-22.971-25.091-29.572-10.866-6.162-24.361-9.32-36.839-8.666-12.513.656-26.012,2.943-37,9.202-24.518,13.966-39.361,38.171-53.541,61.531-7.75,12.767-14.855,25.567-20.481,39.43-5.74,14.144-11.235,28.583-15.844,43.135-4.513,14.247-8.228,28.796-14.195,42.538-5.816,13.396-11.629,26.852-17.968,40.009-11.358,23.571-23.376,47.002-36.495,69.649-2.838,4.899-5.784,9.859-9.88,13.819-5.207,5.034-11.48,8.927-17.352,13.127-11.513,8.234-23.996,13.332-37.884,16.091-23.085,4.586-51.323,4.369-72.424-7.051-10.078-5.454-22.468-13.748-24.582-25.947-.813-4.69-.723-10.142.129-14.828.943-5.186,4.583-9.499,8.119-13.229,17.575-18.537,49.171-16.888,71.487-9.242,12.968,4.443,25.482,10.498,37.946,16.172,13.125,5.975,24.967,13.089,36.22,22.105,20.557,16.47,42.024,32.167,65.801,43.701,23.907,11.597,49.809,18.796,76.502,18.887,13.203.045,27.792-.926,40.411-5.045,11.631-3.797,22.996-9.76,33.233-16.403,10.883-7.061,19.96-14.989,27.137-25.911,5.249-7.988-7.569-15.415-12.787-7.474-6.767,10.299-16.057,17.312-26.535,23.531-9.34,5.544-19.541,11.083-30.264,13.32-26.024,5.429-52.765,3.658-77.978-4.645-23.778-7.831-45.466-20.967-65.646-35.586-10.784-7.813-20.783-16.707-31.66-24.368-11.323-7.974-23.939-13.606-36.557-19.171-12.647-5.578-25.176-11.745-38.536-15.47-12.748-3.554-26.545-4.441-39.669-2.839-12.602,1.539-25.047,5.192-34.891,13.513-9.323,7.881-16.258,17.792-17.405,30.092-1.163,12.472,1.231,23.883,9.227,33.749,8.401,10.365,20.98,17.889,33.304,22.611,22.646,8.675,49.809,8.496,73.356,3.807,13.607-2.71,27.013-7.592,38.465-15.496,11.028-7.612,22.554-14.923,30.312-26.075,6.855-9.854,11.878-20.881,17.717-31.337,6.363-11.394,12.422-22.941,18.175-34.654,12.744-25.948,25.576-52.564,34.048-80.249,4.292-14.026,8.82-27.821,13.909-41.58,5.161-13.955,10.326-27.839,17.737-40.794,13.029-22.775,25.881-45.818,46.083-63.068,4.93-4.21,10.667-8.316,16.825-10.491,5.529-1.953,11.674-2.974,17.473-3.72,11.079-1.426,22.977-.188,33.055,4.891,10.714,5.4,18.786,13.979,21.636,25.771,2.947,12.197,2.372,26.961-.336,39.143-2.686,12.083-6.913,24.974-15.032,34.566-9.334,11.028-19.964,21.003-30.207,31.166-1.043,1.035-2.064,2.099-3.134,3.107-1.085,1.022.615-.396-.638.524-1.794,1.317-3.646,2.557-5.491,3.802-3.241,2.187-6.548,4.289-9.696,6.609-11.764,8.671-26.307,12.647-40.437,15.7-14.101,3.046-28.459,4.176-42.852,4.688-15.67.558-31.045.287-46.573-2.102-12.518-1.926-25.443-3.725-37.648-7.175-10.716-3.029-19.765-10.267-25.781-19.606-5.59-8.677-9.175-20.07-6.613-30.019,1.984-7.705,4.671-15.9,9.896-21.705,7.041-7.822,14.302-12.753,23.172-17.859,8.257-4.753.808-17.554-7.474-12.787h0Z" fill="#fec3e3"/><path d="M1168.257,416.126c-6.229,12.523-14.727,23.866-26.35,31.864-6.608,4.547-13.176,7.546-21.066,9.063-3.277.63-7.17,1.988-10.518,1.558-3.453-.445-6.738-2.475-9.221-4.83-1.618-1.535-2.77-3.179-3.95-5.081-.687-1.108-1.396-2.23-1.97-3.402.701,1.429-.766-2.442-.856-2.975-1.178-6.974.399-15.263,2.335-22.116,4.622-16.357,13.38-31.422,20.43-46.809,3.668-8.005,7.813-16.139,9.194-24.923,1.247-7.934,1.088-16.857-.776-24.706-1.738-7.32-6.184-12.397-12.206-16.623-3.268-2.293-6.662-4.441-10.489-5.681-4.358-1.412-9.357-1.213-13.888-1.056-17.463.606-31.487,8.918-44.477,19.994-12.941,11.035-24.434,23.601-34.636,37.193-22.345,29.769-34.025,65.333-51.974,97.634-4.633,8.338,8.152,15.815,12.787,7.474,16.029-28.846,26.727-60.617,45.185-88.084,9.169-13.643,19.942-26.157,31.962-37.366,11.677-10.889,24.488-21.446,41.152-22.037,3.944-.14,8.101-.522,11.677,1.343,2.899,1.512,6.637,3.696,8.636,6.369,3.56,4.761,3.097,13.082,2.928,18.615-.266,8.689-4.313,16.631-7.863,24.38-3.63,7.924-7.443,15.751-11.192,23.619-11.582,24.307-25.9,63.711,5.168,80.315,3.83,2.047,8.077,3.461,12.447,3.615,4.663.165,9.499-1.264,14.051-2.14,9.035-1.737,17.032-5.36,24.604-10.556,13.715-9.41,24.28-22.334,31.663-37.177,4.231-8.507-8.538-16.017-12.787-7.474h0Z" fill="#fec3e3"/><path d="M1012.856,305.871c-.013,8.114.041,16.32-1.046,24.378-1.048,7.766-3.646,14.953-6.096,22.343-4.707,14.201-11.142,27.767-17.616,41.254-4.105,8.551,8.66,16.072,12.787,7.474,7.025-14.635,14-29.379,19.109-44.792,2.623-7.914,5.151-15.51,6.298-23.815,1.23-8.908,1.359-17.864,1.373-26.843.015-9.529-14.794-9.544-14.809,0h0Z" fill="#fec3e3"/><path d="M645.721,445.135c2.777.66,2.797,4.052,2.086,6.07-2.758,7.829-9.832.709-20.679,1.978-12.983,28.619-26.287,56.502-41.573,84.083-11.362,20.501-23.625,39.18-39.296,56.499-20.411,22.557-44.635,42.436-76.161,34.064-13.943-3.703-22.653-15.697-22.106-30.133,1.391-36.724,33.205-76.99,60.615-101.168,29.788-28.065,68.823-50.961,111.116-53.751,11.403-25.9,22.553-52.054,31.331-80.39l-23.871,26.27c-16.489,18.297-41.242,43.923-62.794,53.831-8.133,3.739-18.093,3.541-24.895-2.619-12.628-11.435-6.184-35.642.841-52.016,15.369-35.823,46.683-81.818,80.195-101.59,10.545-6.221,22.112-7.893,34.06-5.075,16.082,3.793,22.989,17.163,20.728,33.182-.324,2.296-4.819,5.414-5.686,3.372-2.342-5.515-2.06-11.531-5.742-16.573-6.263-8.574-17.919-13.019-28.387-10.283-7.669,2.004-13.957,6.271-19.901,11.39-28.53,24.572-57.616,65.071-69.607,100.714-4.334,12.882-4.682,31.359,5.356,32.479,5.683.634,10.959-1.76,15.618-4.762,8.848-5.701,17.044-11.67,24.482-19.123l28.399-28.456c15.007-15.036,28.677-30.702,40.594-48.309,1.252-1.85,3.076-3.096,4.843-2.74,1.546.312,3.987,2.954,3.425,5.446-4.155,18.407-10.026,35.948-16.963,53.693l-19.796,50.642,13.768,3.274ZM472.327,617.316c15.127,5.044,30.503,1.039,42.862-8.296,25.21-19.044,45.857-51.323,61.921-79.156,14.249-24.689,26.44-49.641,37.9-75.937-2.435.163-4.069.931-6.148.144-34.889,5.184-65.621,23.766-91.638,47.287-20.846,18.846-38.327,40.517-50.387,65.908-4.563,9.607-7.813,18.947-7.648,29.559.135,8.709,4.217,17.516,13.139,20.491Z" fill="#fec3e3"/><path d="M484.762,631.775c-4.858,0-9.91-.64-15.172-2.037-14.679-3.898-24.152-16.805-23.572-32.116.65-17.157,7.672-36.097,20.871-56.294,10.58-16.189,24.931-32.625,40.411-46.28,34.09-32.118,73.509-51.331,111.095-54.156,9.691-22.031,19.725-45.475,27.998-70.44l-17.749,19.534c-26.023,28.876-46.773,46.639-63.431,54.297-9.586,4.407-20.201,3.25-27.045-2.949-6.167-5.584-14.321-20.058.351-54.258,15.138-35.286,46.944-82.417,81.006-102.513,10.987-6.481,22.94-8.263,35.517-5.296,16.252,3.833,24.77,17.389,22.23,35.38-.379,2.69-3.645,5.382-6.053,5.698-1.531.203-2.84-.499-3.406-1.831-.995-2.343-1.538-4.72-2.063-7.02-.756-3.312-1.47-6.441-3.456-9.16-5.925-8.112-16.74-12.034-26.294-9.537-6.323,1.652-12.217,5.037-19.112,10.975-29.839,25.7-57.577,65.825-69.024,99.847-2.977,8.849-4.16,21.362-.489,27.12,1.062,1.666,2.434,2.571,4.193,2.767,4.313.482,8.863-.937,14.33-4.459,10.334-6.659,17.784-12.475,24.154-18.858l28.4-28.456c16.648-16.681,29.472-31.94,40.358-48.021,1.846-2.73,4.411-4.067,6.868-3.568,1.411.285,2.925,1.448,3.954,3.036.997,1.539,1.355,3.237,1.007,4.781-3.776,16.727-9.194,33.879-17.05,53.977l-18.969,48.528,11.558,2.749c1.432.341,2.555,1.191,3.247,2.46,1.087,1.993.839,4.503.245,6.189-2.243,6.367-7.132,5.289-11.863,4.246-2.752-.607-5.834-1.287-9.356-1.062-10.522,23.169-24.633,53.339-41.17,83.178-12.829,23.15-25.4,41.22-39.559,56.868-16.821,18.589-37.133,36.684-62.96,36.684ZM655.569,354.481l-2.63,8.491c-8.933,28.834-20.414,55.628-31.41,80.601l-.483,1.096-1.194.079c-37.032,2.443-76.059,21.343-109.892,53.218-28.14,24.825-58.641,64.045-59.995,99.806-.517,13.634,7.585,24.683,20.64,28.15,31.183,8.281,55.004-12.277,74.19-33.481,13.951-15.416,26.354-33.252,39.033-56.131,16.719-30.168,30.962-60.707,41.502-83.942l.461-1.016,1.108-.129c4.638-.543,8.586.329,11.76,1.029,5.185,1.144,6.291,1.124,7.286-1.702.368-1.042.373-2.325.013-2.985-.153-.281-.354-.428-.693-.508h0l-15.975-3.8,20.622-52.757c7.782-19.909,13.145-36.88,16.876-53.409.298-1.324-1.313-2.93-1.895-3.077-.799-.158-1.929.608-2.812,1.912-11.028,16.293-24.003,31.735-40.832,48.597l-28.399,28.456c-6.578,6.59-14.229,12.57-24.81,19.388-3.947,2.543-9.993,5.836-16.907,5.064-2.938-.328-5.387-1.907-7.084-4.569-4.581-7.184-3.172-20.848.076-30.502,11.652-34.636,39.859-75.458,70.19-101.581,4.965-4.275,11.803-9.481,20.69-11.804,11.088-2.898,23.622,1.639,30.481,11.029,2.466,3.376,3.306,7.054,4.117,10.61.452,1.978.881,3.858,1.571,5.668.864-.415,2.106-1.592,2.19-2.188,2.262-16.029-4.925-27.612-19.226-30.985-11.557-2.727-22.525-1.093-32.604,4.854-33.297,19.645-64.491,65.954-79.383,100.668-4.736,11.04-14.346,37.988-1.33,49.774,5.671,5.135,14.598,6.032,22.745,2.289,16.161-7.43,36.491-24.883,62.152-53.359l29.854-32.855ZM485.68,621.452c-4.731,0-9.43-.747-13.978-2.263-10.481-3.495-14.357-13.828-14.488-22.333-.184-11.89,3.86-22.059,7.839-30.437,11.514-24.243,28.146-46.004,50.847-66.526,29.869-27.003,61.048-43.077,92.671-47.775l.508-.076.481.182c.899.34,1.668.239,3.063.016.66-.106,1.407-.226,2.253-.283l3.24-.218-1.297,2.977c-12.325,28.283-24.755,53.188-37.999,76.135-15.519,26.891-36.641,60.256-62.441,79.746-9.464,7.148-20.156,10.855-30.698,10.856ZM608.685,456.093c-30.68,4.672-61.005,20.392-90.138,46.729-22.309,20.168-38.641,41.524-49.928,65.29-3.783,7.967-7.628,17.606-7.457,28.682.111,7.152,3.266,15.807,11.789,18.649h0c13.626,4.543,28.204,1.702,41.047-7.999,25.232-19.061,46.068-52.001,61.401-78.568,12.667-21.949,24.589-45.706,36.396-72.535-.969.097-1.986.086-3.11-.248Z" fill="#fec3e3"/><path d="M763.168,453.401c-13.032,28.454-25.93,55.61-40.869,82.629-16.382,29.629-41.946,66.416-70.436,83.921-14.765,9.072-32.742,12.044-49.132,6.984-13.239-4.087-21.471-15.651-21.5-29.449-.08-37.753,33.321-80.195,61.491-104.929,30.963-28.496,67.843-50.489,110.963-53.903,9.201-22.646,19.627-43.823,26.685-68.834-16.149,16.722-29.793,33.837-46.864,48.569-15.937,14.329-40.811,35.793-58.946,22.073-12.893-9.754-9.783-33.43-3.38-49.594,12.469-31.475,31.144-59.787,54.263-84.535,8.746-9.363,17.816-16.958,28.734-23.528,15.195-9.143,35.283-10.028,49.424,1.334,8.848,7.109,12.319,27.643,5.075,32.802-1.362.97-5.063,1.683-5.911-.648-2.141-5.884-2.053-12.391-6.51-17.466-4.995-5.688-13.657-9.866-21.547-8.839-8.928,1.162-16.547,5.939-23.337,12.013-28.583,25.567-51.28,57.361-66.23,92.672-7.458,17.615-7.251,38.652,3.701,36.919,18.005-2.85,49.445-35.731,64.171-51.44,14.421-15.384,28.298-30.44,40.381-47.684,2.106-3.006,4.068-4.883,7.97-3.929,2.803.685,4.945,4.845,3.888,8.45l-9.211,31.42-26.397,69.963,12.143,3.139c3.692.954,3.947,6.257,2.165,9.655-4.092,7.8-11.469.312-20.782,2.236ZM782.86,449.013c.538-1.45.717-5.027-1.264-5.511l-14.681-3.589,26.52-69.512,10.193-34.266c.805-2.707-1.267-5.61-3.195-5.998-2.663-.536-3.868.956-5.346,3.131-11.183,16.449-24.174,30.953-37.937,45.285l-19.082,19.872c-10.988,11.443-22.721,21.492-36.093,30.137-4.839,3.128-10.599,5.773-16.362,4.546-11.715-2.495-7.675-26.547-1.278-41.336,13.715-31.707,33.65-60.159,58.246-84.361,6.278-6.178,12.283-11.154,19.773-15.459,12.598-7.241,28.622-4.267,36.969,7.725,3.328,4.781,3.058,10.719,5.268,15.932.951,1.922,5.405-1.083,5.735-3.345,2.32-15.885-4.664-29.479-20.771-33.188-10.182-2.345-20.216-1.835-29.671,2.847-9.718,4.812-18.021,10.917-26.022,18.693-26.116,25.38-46.689,56.078-60.492,89.82-6.241,15.257-10.196,37.772,1.641,47.768,6.817,5.757,16.537,5.762,24.458,2.162,21.221-9.646,46.416-35.72,62.713-53.816l23.813-26.246c-8.601,28.118-19.724,53.972-31.151,80.222-41.615,2.946-80.229,24.903-110.232,52.992-27.828,24.24-60.172,64.966-61.607,102.068-.545,14.083,7.763,25.993,21.379,29.899,15.291,4.386,31.66,1.72,45.476-6.514,12.168-7.252,21.893-16.833,31.398-27.314,15.525-17.118,27.733-35.587,38.973-55.855,15.411-27.79,28.818-55.901,41.907-84.7,11.008-1.32,17.767,5.875,20.724-2.089ZM780.474,369.252l-.474.474.474.474.474-.474-.474-.474Z" fill="#76305a"/><path d="M907.959,461.916c-22.477,42.198-47.956,91.116-79.366,126.385-9.758,10.957-19.947,20.315-32.151,28.53-14.963,10.072-32.886,14.184-50.589,9.923-11.31-2.722-20.143-11.665-21.801-23.184-1.393-9.683-.148-19.235,3.41-28.607,11.755-30.96,32.155-57.354,58.265-77.727,32.455-25.69,71.068-44.582,112.879-49.087l30.607-66.998c-23.279,21.187-47.212,39.791-73.323,56.215-6.216,3.59-11.958,6.613-19.015,7.37-8.84.949-15.695-4.008-18.639-12.601-3.695-10.785-1.613-22.706,2.591-33.599,11.716-30.355,30.653-50.503,43.079-80.904,5.191-12.7-1.078-25.805,8.472-27.26,14.19-2.162,10.297,30.947-.95,49.139l-22.032,35.636-13.283,25.638c-3.688,7.118-6.069,23.747-1.595,27.438,1.617,1.334,4.837,1.944,7.12.918,24.226-10.896,67.588-52.106,88.974-73.092,5.723-5.616,10.236-11.196,14.729-17.778,2.864-4.195,10.744-4.278,13.31-.035-3.454,15.119-8.011,29.579-14.339,43.868l-28.911,65.284c6.957,1.125,13.736.848,19.907,3.678,3.641,1.67,2.989,6.479,1.546,9.153-4.145,7.676-15.76-.68-28.894,1.698ZM855.843,549.183c18.895-28.877,35.133-58.617,50.89-89.067,8.939-1.006,16.616.41,24.954,1.715,3.387.53,6.335-6.87,3.341-8.564-6.99-3.953-14.986-3.129-22.717-4.007l29.55-65.986,15.095-44.57c-2.301-2.104-7.305-2.699-9.433-.076l-14.119,17.405c-21.975,21.736-64.916,62.443-89.973,74.54-3.024,1.46-6.694,1.411-9.287-.195-6.861-4.249-3.536-23.836,1.387-33.101l12.84-24.162,22.044-35.652c10.058-16.267,13.488-45.933,2.967-45.443-2.711.126-5.174,2.428-5.233,5.433l-.253,13.017c-2.762,11.612-8.115,21.903-14.238,32.203l-22.893,38.505c-8.311,13.98-16.593,36.659-10.266,51.574,2.941,6.934,8.744,10.919,16.482,9.98,5.805-.704,11.026-3.173,16.06-6.159l32.201-21.847c17.493-12.28,32.484-25.918,49.132-41.282l-34.683,76.688c-43.082,4.023-83.759,24.748-116.235,51.432-23.22,18.958-41.348,42.569-52.835,70.262-3.564,8.592-5.536,17.26-5.407,26.394.178,12.595,7.996,22.914,20.224,26.399,13.462,3.837,27.837,2.128,40.529-4.119,27.606-13.587,52.83-45.273,69.874-71.322Z" fill="#76305a"/><path d="M542.921,396.142c-6.064,9.474-17.91,14.137-27.167,19.286-10.416,5.793-22.324,3.706-32.905,6.86-9.269,4.528-16.915,13.756-27.589,17.222-9.115,2.96-17.885,5.348-27.555,4.328-19.788-2.088-23.647-23.419-20.387-42.701,2.078-13.636,6.439-26.045,11.629-38.976,1.191-26.724,14.01-50.739,35.421-66.761,13.676-10.235,30.812-14.165,47.449-10.251,7.182,1.689,12.746,6.141,16.059,12.562,13.244,25.671,3.563,61.751-9.962,87.154l-15.338,25.726c3.067,1.696,5.43-.19,7.998-.759,21.373-4.738,33.567-17.903,48.14-33.13-2.159,6.664-2.282,13.954-5.793,19.44ZM477.924,409.741c22.57-22.16,45.09-69.179,34.866-98.342-3.426-9.77-11.42-15.211-21.843-15.288-13.024-.096-25.186,5.062-35.095,13.556,2.514,2.071,4.191,3.886,4.273,5.846.098,2.36-1.651,3.6-3.29,5.12-11.396,10.577-21.352,30.628-28.443,45.773,2.349,27.257,21.908,42.199,49.532,43.334ZM467.046,418.97c-3.266-2.062-4.847-2.183-7.018-2.728-17.008-4.268-30.537-15.131-38.423-31.887-3.63,11.359-6.03,22.593-4.46,33.727,1.231,8.723,7.515,13.895,16.149,13.416,12.365-.686,24.225-4.94,33.752-12.528Z" fill="#76305a"/><path d="M432.247,444.567c-1.512,0-3.041-.075-4.592-.239-6.608-.697-11.846-3.539-15.57-8.447-5.79-7.631-7.704-20.324-5.252-34.827,2.161-14.181,6.862-27.125,11.627-38.999,1.21-26.581,14.187-51.015,35.615-67.051,13.953-10.441,31.399-14.208,47.858-10.336,7.276,1.712,12.942,6.143,16.384,12.816,13.31,25.798,3.579,62.173-9.965,87.612l-15.077,25.29c1.853.815,3.439.235,5.108-.376.674-.246,1.371-.501,2.086-.66,20.732-4.596,32.849-17.264,46.88-31.933l2.501-2.613-.665,2.051c-.781,2.41-1.301,4.94-1.803,7.388-.909,4.427-1.768,8.609-4.044,12.166-4.986,7.789-13.955,12.441-21.868,16.546-1.917.994-3.726,1.933-5.475,2.905-6.331,3.521-13.238,4.176-19.916,4.809-4.372.414-8.892.842-13.087,2.093-3.811,1.869-7.356,4.563-11.11,7.416-5.034,3.825-10.239,7.78-16.467,9.803-7.233,2.349-14.921,4.588-23.167,4.588ZM489.091,284.167c-12.165,0-24.239,4.006-34.425,11.628-21.213,15.874-34.052,40.071-35.224,66.388l-.035.162c-4.753,11.841-9.448,24.745-11.599,38.866-2.408,14.243-.561,26.659,5.064,34.074,3.553,4.682,8.561,7.395,14.887,8.062,9.812,1.036,18.892-1.56,27.35-4.307,6.069-1.971,11.207-5.875,16.175-9.65,3.794-2.883,7.377-5.605,11.35-7.546,4.363-1.308,8.933-1.74,13.352-2.159,6.577-.623,13.379-1.268,19.529-4.688,1.762-.98,3.578-1.922,5.501-2.919,8.184-4.245,16.648-8.635,21.49-16.201l.416.266-.416-.266c2.179-3.404,3.019-7.498,3.909-11.833.374-1.822.758-3.69,1.253-5.532-13.975,14.609-26.157,27.185-46.985,31.802-.651.144-1.287.377-1.961.623-1.844.674-3.935,1.439-6.383.086l-.446-.247,15.599-26.165c13.415-25.198,23.082-61.216,9.947-86.675-3.306-6.408-8.747-10.664-15.733-12.308-4.166-.98-8.396-1.462-12.615-1.462ZM432.22,432.022c-8.305,0-14.36-5.344-15.563-13.871-1.729-12.256,1.485-24.58,4.479-33.946l.382-1.196.535,1.136c7.701,16.363,20.875,27.296,38.096,31.618.336.084.659.159.975.231,1.728.398,3.36.774,6.186,2.558l.587.371-.543.433c-9.487,7.557-21.255,11.926-34.032,12.635-.371.021-.739.031-1.102.031ZM421.701,385.691c-2.846,9.107-5.696,20.771-4.066,32.322,1.196,8.482,7.174,13.45,15.633,12.992,12.323-.684,23.688-4.825,32.916-11.986-2.314-1.38-3.699-1.698-5.282-2.063-.323-.074-.651-.149-.994-.236-17.121-4.296-30.307-15.013-38.208-31.03ZM478.118,410.243l-.214-.009c-29.051-1.193-47.744-17.562-50.004-43.785l-.011-.131.056-.12c7.953-16.986,17.565-35.726,28.554-45.925.199-.184.399-.364.597-.543,1.402-1.261,2.612-2.351,2.536-4.195-.064-1.554-1.25-3.144-4.093-5.485l-.453-.374.446-.382c10.545-9.04,22.805-13.797,35.42-13.675,10.723.08,18.854,5.773,22.306,15.619,4.684,13.36,2.858,31.877-5.142,52.141-7.029,17.805-18.186,35.269-29.844,46.716l-.153.15ZM428.895,366.496c2.259,25.54,20.499,41.503,48.836,42.743,11.509-11.357,22.514-28.618,29.465-46.224,7.913-20.043,9.734-38.316,5.128-51.452-3.306-9.429-11.099-14.881-21.381-14.958-12.195-.071-24.064,4.423-34.325,13.059,2.077,1.756,3.91,3.674,4,5.829.095,2.308-1.408,3.661-2.862,4.97-.194.175-.391.352-.586.533-10.839,10.059-20.374,28.632-28.275,45.5Z" fill="#76305a"/><path d="M782.86,449.013c-2.957,7.964-9.716.769-20.724,2.089-13.089,28.798-26.496,56.909-41.907,84.7-11.239,20.268-23.448,38.737-38.973,55.855-9.505,10.48-19.23,20.062-31.398,27.314-13.816,8.234-30.185,10.9-45.476,6.514-13.616-3.905-21.923-15.815-21.379-29.899,1.435-37.102,33.779-77.829,61.607-102.068,30.004-28.089,68.617-50.046,110.232-52.992,11.427-26.251,22.55-52.105,31.151-80.222l-23.813,26.246c-16.297,18.096-41.492,44.17-62.713,53.816-7.921,3.601-17.641,3.595-24.458-2.162-11.837-9.996-7.882-32.511-1.641-47.768,13.802-33.742,34.376-64.44,60.492-89.82,8.001-7.776,16.304-13.881,26.022-18.693,9.455-4.682,19.489-5.191,29.671-2.847,16.108,3.709,23.091,17.303,20.771,33.188-.33,2.262-4.784,5.267-5.735,3.345-2.21-5.212-1.941-11.151-5.268-15.932-8.347-11.992-24.371-14.966-36.969-7.725-7.49,4.305-13.495,9.281-19.773,15.459-24.596,24.203-44.531,52.654-58.246,84.361-6.397,14.789-10.437,38.841,1.278,41.336,5.762,1.227,11.523-1.418,16.362-4.546,13.371-8.645,25.104-18.694,36.093-30.137l19.082-19.872c13.762-14.332,26.753-28.836,37.937-45.285,1.479-2.175,2.683-3.666,5.346-3.131,1.928.388,4.001,3.291,3.195,5.998l-10.193,34.266-26.52,69.512,14.681,3.589c1.981.484,1.803,4.061,1.264,5.511ZM605.992,614.615c14.838,5.764,30.61,2.146,43.05-6.897,29.605-21.522,55.127-64.694,72.868-97.582l28.126-58.333c-2.771.317-4.594.744-6.905.219-35.053,5.526-65.93,24.341-91.859,48.149-20.247,18.59-37.288,39.603-49.13,64.428-4.512,9.459-7.836,18.612-7.921,29.18-.067,8.266,3.281,17.539,11.77,20.836Z" fill="#76305a"/><rect x="795.054" y="371.365" width=".67" height=".67" transform="translate(-29.787 671.514) rotate(-45.015)" fill="#b0275f"/><path d="M855.843,549.183c-17.045,26.049-42.268,57.736-69.874,71.322-12.692,6.247-27.067,7.956-40.529,4.119-12.228-3.486-20.046-13.804-20.224-26.399-.129-9.134,1.843-17.802,5.407-26.394,11.487-27.694,29.615-51.304,52.835-70.262,32.476-26.685,73.153-47.409,116.235-51.432l34.683-76.688c-16.649,15.364-31.639,29.002-49.132,41.282l-32.201,21.847c-5.033,2.986-10.254,5.455-16.06,6.159-7.738.938-13.541-3.046-16.482-9.98-6.326-14.915,1.955-37.594,10.266-51.574l22.893-38.505c6.124-10.3,11.476-20.591,14.238-32.203l.253-13.017c.058-3.005,2.521-5.307,5.233-5.433,10.521-.49,7.092,29.176-2.967,45.443l-22.044,35.652-12.84,24.162c-4.923,9.264-8.249,28.852-1.387,33.101,2.593,1.606,6.263,1.655,9.287.195,25.056-12.097,67.998-52.804,89.973-74.54l14.119-17.405c2.128-2.623,7.132-2.028,9.433.076l-15.095,44.57-29.55,65.986c7.731.878,15.728.054,22.717,4.007,2.995,1.694.046,9.094-3.341,8.564-8.338-1.305-16.015-2.721-24.954-1.715-15.758,30.45-31.996,60.19-50.89,89.067ZM752.884,615.611c12.73,2.198,24.715-.418,35.33-7.104,12.096-7.619,22.07-17.314,31.342-28.29,29.484-34.901,54.246-77.829,75.154-118.659l-8.737.611c-40.868,7.319-78.475,27.249-107.857,56.733-15.512,15.565-26.93,33.931-36.376,53.558-3.946,8.199-5.984,17.04-5.045,25.817.964,9.005,7.094,15.764,16.188,17.334Z" fill="#76305a"/><path d="M182.758,204.02c-9.446,5.438-18.325,11.68-25.778,19.753-6.576,7.122-10.145,15.722-12.996,24.875-7.58,24.335,5.018,49.974,25.213,64.035,10.176,7.085,22.401,9.316,34.388,11.403,14.857,2.586,29.726,5.351,44.814,6.149,30.273,1.601,62.251-1.201,91.156-10.533,7.086-2.288,14.237-4.921,20.564-8.906,3.785-2.384,7.343-5.193,11.066-7.687,3.845-2.575,7.873-5.054,11.417-8.046,5.101-4.307,9.681-9.45,14.409-14.168,9.809-9.787,20.706-19.716,27.518-31.922,6.947-12.448,11.325-26.851,12.681-41.018,1.254-13.099,1.717-27.087-2.409-39.759-4.169-12.805-13.452-22.971-25.091-29.572-10.866-6.162-24.361-9.32-36.839-8.666-12.513.656-26.012,2.943-37,9.202-24.518,13.966-39.361,38.171-53.541,61.531-7.75,12.767-14.855,25.567-20.481,39.43-5.74,14.144-11.235,28.583-15.844,43.135-4.513,14.247-8.228,28.796-14.195,42.538-5.816,13.396-11.629,26.852-17.968,40.009-11.358,23.571-23.376,47.002-36.495,69.649-2.838,4.899-5.784,9.859-9.88,13.819-5.207,5.034-11.48,8.927-17.352,13.127-11.513,8.234-23.996,13.332-37.884,16.091-23.085,4.586-51.323,4.369-72.424-7.051-10.078-5.454-22.468-13.748-24.582-25.947-.813-4.69-.723-10.142.129-14.828.943-5.186,4.583-9.499,8.119-13.229,17.575-18.537,49.171-16.888,71.487-9.242,12.968,4.443,25.482,10.498,37.946,16.172,13.125,5.975,24.967,13.089,36.22,22.105,20.557,16.47,42.024,32.167,65.801,43.701,23.907,11.597,49.809,18.796,76.502,18.887,13.203.045,27.792-.926,40.411-5.045,11.631-3.797,22.996-9.76,33.233-16.403,10.883-7.061,19.96-14.989,27.137-25.911,5.249-7.988-7.569-15.415-12.787-7.474-6.767,10.299-16.057,17.312-26.535,23.531-9.34,5.544-19.541,11.083-30.264,13.32-26.024,5.429-52.765,3.658-77.978-4.645-23.778-7.831-45.466-20.967-65.646-35.586-10.784-7.813-20.783-16.707-31.66-24.368-11.323-7.974-23.939-13.606-36.557-19.171s-25.176-11.745-38.536-15.47c-12.748-3.554-26.545-4.441-39.669-2.839-12.602,1.539-25.047,5.192-34.891,13.513-9.323,7.881-16.258,17.792-17.405,30.092-1.163,12.472,1.231,23.883,9.227,33.749,8.401,10.365,20.98,17.889,33.304,22.611,22.646,8.675,49.809,8.496,73.356,3.807,13.607-2.71,27.013-7.592,38.465-15.496,11.028-7.612,22.554-14.923,30.312-26.075,6.855-9.854,11.878-20.881,17.717-31.337,6.363-11.394,12.422-22.941,18.175-34.654,12.744-25.948,25.576-52.564,34.048-80.249,4.292-14.026,8.82-27.821,13.909-41.58,5.161-13.955,10.326-27.839,17.737-40.794,13.029-22.775,25.881-45.818,46.083-63.068,4.93-4.21,10.667-8.316,16.825-10.491,5.529-1.953,11.674-2.974,17.473-3.72,11.079-1.426,22.977-.188,33.055,4.891,10.714,5.4,18.786,13.979,21.636,25.771,2.947,12.197,2.372,26.961-.336,39.143-2.686,12.083-6.913,24.974-15.032,34.566-9.334,11.028-19.964,21.003-30.207,31.166-1.043,1.035-2.064,2.099-3.134,3.107-1.085,1.022.615-.396-.638.524-1.794,1.317-3.646,2.557-5.491,3.802-3.241,2.187-6.548,4.289-9.696,6.609-11.764,8.671-26.307,12.647-40.437,15.7s-28.459,4.176-42.852,4.688c-15.67.558-31.045.287-46.573-2.102-12.518-1.926-25.443-3.725-37.648-7.175-10.716-3.029-19.765-10.267-25.781-19.606-5.59-8.677-9.175-20.07-6.613-30.019,1.984-7.705,4.671-15.9,9.896-21.705,7.041-7.822,14.302-12.753,23.172-17.859,8.257-4.753.808-17.554-7.474-12.787h0Z" fill="#76305a"/><path d="M1164.651,413.05c-6.229,12.523-14.727,23.866-26.35,31.864-6.608,4.547-13.176,7.546-21.066,9.063-3.277.63-7.17,1.988-10.518,1.558-3.453-.445-6.738-2.475-9.221-4.83-1.618-1.535-2.77-3.179-3.95-5.081-.687-1.108-1.396-2.23-1.97-3.402.701,1.429-.766-2.442-.856-2.975-1.178-6.974.399-15.263,2.335-22.116,4.622-16.357,13.38-31.422,20.43-46.809,3.668-8.005,7.813-16.139,9.194-24.923,1.247-7.934,1.088-16.857-.776-24.706-1.738-7.32-6.184-12.397-12.206-16.623-3.268-2.293-6.662-4.441-10.489-5.681-4.358-1.412-9.357-1.213-13.888-1.056-17.463.606-31.487,8.918-44.477,19.994-12.941,11.035-24.434,23.601-34.636,37.193-22.345,29.769-34.025,65.333-51.974,97.634-4.633,8.338,8.152,15.815,12.787,7.474,16.029-28.846,26.727-60.617,45.185-88.084,9.169-13.643,19.942-26.157,31.962-37.366,11.677-10.889,24.488-21.446,41.152-22.037,3.944-.14,8.101-.522,11.677,1.343,2.899,1.512,6.637,3.696,8.636,6.369,3.56,4.761,3.097,13.082,2.928,18.615-.266,8.689-4.313,16.631-7.863,24.38-3.63,7.924-7.443,15.751-11.192,23.619-11.582,24.307-25.9,63.711,5.168,80.315,3.83,2.047,8.077,3.461,12.447,3.615,4.663.165,9.499-1.264,14.051-2.14,9.035-1.737,17.032-5.36,24.604-10.556,13.715-9.41,24.28-22.334,31.663-37.177,4.231-8.507-8.538-16.017-12.787-7.474h0Z" fill="#76305a"/><path d="M1009.249,302.796c-.013,8.114.041,16.32-1.046,24.378-1.048,7.766-3.646,14.953-6.096,22.343-4.707,14.201-11.142,27.767-17.616,41.254-4.105,8.551,8.66,16.072,12.787,7.474,7.025-14.635,14-29.379,19.109-44.792,2.623-7.914,5.151-15.51,6.298-23.815,1.23-8.908,1.359-17.864,1.373-26.843.015-9.529-14.794-9.544-14.809,0h0Z" fill="#76305a"/><path d="M642.115,442.06c2.777.66,2.797,4.052,2.086,6.07-2.758,7.829-9.832.709-20.679,1.978-12.983,28.619-26.287,56.502-41.573,84.083-11.362,20.501-23.625,39.18-39.296,56.499-20.411,22.557-44.635,42.436-76.161,34.064-13.943-3.703-22.653-15.697-22.106-30.133,1.391-36.724,33.205-76.99,60.615-101.168,29.788-28.065,68.823-50.961,111.116-53.751,11.403-25.9,22.553-52.054,31.331-80.39l-23.871,26.27c-16.489,18.297-41.242,43.923-62.794,53.831-8.133,3.739-18.093,3.541-24.895-2.619-12.628-11.435-6.184-35.642.841-52.016,15.369-35.823,46.683-81.818,80.195-101.59,10.545-6.221,22.112-7.893,34.06-5.075,16.082,3.793,22.989,17.163,20.728,33.182-.324,2.296-4.819,5.414-5.686,3.372-2.342-5.515-2.06-11.531-5.742-16.573-6.263-8.574-17.919-13.019-28.387-10.283-7.669,2.004-13.957,6.271-19.901,11.39-28.53,24.572-57.616,65.071-69.607,100.714-4.334,12.882-4.682,31.359,5.356,32.479,5.683.634,10.959-1.76,15.618-4.762,8.848-5.701,17.044-11.67,24.482-19.123l28.399-28.456c15.007-15.036,28.677-30.702,40.594-48.309,1.252-1.85,3.076-3.096,4.843-2.74,1.546.312,3.987,2.954,3.425,5.446-4.155,18.407-10.026,35.948-16.963,53.693l-19.796,50.642,13.768,3.274ZM468.72,614.24c15.127,5.044,30.503,1.039,42.862-8.296,25.21-19.044,45.857-51.323,61.921-79.156,14.249-24.689,26.44-49.641,37.9-75.937-2.435.163-4.069.931-6.148.144-34.889,5.184-65.621,23.766-91.638,47.287-20.846,18.846-38.327,40.517-50.387,65.908-4.563,9.607-7.813,18.947-7.648,29.559.135,8.709,4.217,17.516,13.139,20.491Z" fill="#76305a"/><path d="M481.156,628.699c-4.858,0-9.91-.64-15.173-2.037-14.679-3.898-24.152-16.805-23.572-32.115.65-17.157,7.672-36.098,20.87-56.294,10.58-16.19,24.932-32.626,40.411-46.281,34.089-32.118,73.509-51.331,111.095-54.156,9.691-22.032,19.725-45.477,27.998-70.441l-17.75,19.535c-26.023,28.877-46.773,46.639-63.43,54.297-9.586,4.406-20.201,3.249-27.045-2.949-14.903-13.495-4.719-42.44.351-54.259,15.138-35.285,46.944-82.416,81.006-102.512,10.987-6.481,22.939-8.263,35.517-5.296,16.252,3.833,24.77,17.39,22.23,35.38-.38,2.691-3.646,5.383-6.054,5.699-1.538.2-2.84-.501-3.405-1.831-.995-2.342-1.537-4.72-2.062-7.019-.757-3.313-1.471-6.441-3.458-9.161-5.924-8.113-16.74-12.034-26.293-9.538-6.322,1.652-12.216,5.037-19.112,10.976-29.839,25.699-57.578,65.825-69.024,99.847-2.977,8.849-4.16,21.362-.489,27.12,1.062,1.666,2.434,2.571,4.193,2.767,4.307.48,8.861-.937,14.33-4.46,10.333-6.658,17.782-12.474,24.153-18.858l28.4-28.456c16.651-16.684,29.475-31.943,40.357-48.021,1.848-2.731,4.413-4.063,6.87-3.568,1.409.284,2.924,1.447,3.953,3.035.997,1.54,1.355,3.237,1.006,4.781-3.774,16.725-9.192,33.877-17.049,53.977l-18.97,48.528,11.56,2.749c1.431.341,2.554,1.191,3.245,2.459,1.086,1.992.84,4.503.246,6.188-2.245,6.368-7.135,5.289-11.864,4.246-2.752-.607-5.833-1.287-9.356-1.062-10.521,23.166-24.629,53.333-41.169,83.178-12.829,23.148-25.399,41.218-39.559,56.868-16.821,18.589-37.133,36.684-62.96,36.684ZM651.963,351.406l-2.63,8.49c-8.932,28.833-20.414,55.628-31.41,80.602l-.483,1.096-1.194.079c-37.032,2.443-76.059,21.343-109.892,53.218-28.14,24.824-58.641,64.045-59.996,99.806-.516,13.633,7.585,24.682,20.64,28.149,31.184,8.282,55.003-12.276,74.19-33.48,13.952-15.418,26.355-33.255,39.033-56.131,16.723-30.174,30.963-60.71,41.502-83.942l.461-1.016,1.108-.129c4.639-.543,8.588.329,11.76,1.029,5.19,1.146,6.292,1.123,7.287-1.702.367-1.042.372-2.325.012-2.985-.153-.281-.354-.428-.693-.508l-15.976-3.8,20.623-52.757c7.783-19.911,13.145-36.881,16.875-53.409.299-1.324-1.311-2.93-1.893-3.076-.799-.168-1.931.608-2.814,1.912-11.025,16.289-24,31.731-40.832,48.596l-28.399,28.456c-6.579,6.592-14.23,12.571-24.81,19.388-3.947,2.544-9.991,5.837-16.907,5.065-2.938-.328-5.388-1.907-7.085-4.569-4.581-7.185-3.172-20.848.076-30.502,11.652-34.636,39.859-75.458,70.19-101.58,4.965-4.276,11.804-9.482,20.69-11.804,11.086-2.895,23.622,1.638,30.481,11.03,2.467,3.376,3.306,7.054,4.119,10.61.451,1.978.88,3.858,1.571,5.667.864-.415,2.106-1.593,2.19-2.189,2.262-16.028-4.925-27.612-19.226-30.984-11.557-2.726-22.525-1.093-32.604,4.854-33.297,19.645-64.491,65.954-79.383,100.668-4.736,11.04-14.347,37.988-1.33,49.774,5.671,5.135,14.598,6.032,22.745,2.289,16.161-7.429,36.491-24.883,62.152-53.359l29.854-32.855ZM482.074,618.376c-4.731,0-9.43-.746-13.978-2.263h0c-10.481-3.496-14.356-13.829-14.488-22.333-.184-11.89,3.859-22.059,7.839-30.437,11.514-24.245,28.147-46.006,50.846-66.526,29.869-27.003,61.049-43.077,92.672-47.775l.508-.076.481.182c.899.339,1.668.238,3.061.015.66-.106,1.408-.226,2.256-.283l3.24-.217-1.298,2.976c-12.327,28.286-24.757,53.19-38,76.135-15.52,26.892-36.644,60.258-62.441,79.745-9.463,7.149-20.155,10.857-30.698,10.857ZM469.344,612.368c13.627,4.542,28.204,1.702,41.047-8,25.23-19.058,46.067-51.999,61.401-78.567,12.666-21.947,24.588-45.704,36.396-72.535-.969.097-1.987.087-3.11-.248-30.68,4.671-61.005,20.391-90.138,46.728-22.308,20.167-38.639,41.523-49.928,65.291-3.784,7.967-7.629,17.605-7.457,28.682.111,7.152,3.266,15.806,11.789,18.649h0Z" fill="#76305a"/><path d="M319.561,708.795c-2.98,3.218-6.972,4.887-11.322,4.887-4.172,0-7.986-1.549-10.846-4.41-3.993-3.992-3.993-8.164-3.993-17.163s0-13.169,3.993-17.162c2.86-2.861,6.615-4.41,10.846-4.41,8.104,0,13.587,5.245,14.838,12.693h-4.529c-1.192-5.363-5.006-8.641-10.309-8.641-2.801,0-5.482,1.133-7.33,3.039-2.682,2.742-2.979,5.602-2.979,14.481s.298,11.799,2.979,14.54c1.848,1.907,4.529,2.98,7.33,2.98,3.098,0,6.078-1.252,8.044-3.635,1.728-2.086,2.384-4.41,2.384-7.687v-3.218h-10.428v-3.993h14.957v6.734c0,4.887-1.013,8.164-3.635,10.965Z" fill="#76305a"/><path d="M347.625,695.804v17.52h-4.529v-17.52l-12.633-24.909h4.887l10.011,20.32,9.892-20.32h4.887l-12.514,24.909Z" fill="#76305a"/><path d="M396.785,713.324l-22.525-34.026v34.026h-4.529v-42.428h4.29l22.525,33.907v-33.907h4.529v42.428h-4.29Z" fill="#76305a"/><path d="M416.327,713.324v-42.428h26.339v4.052h-21.81v14.957h18.592v4.052h-18.592v15.315h21.81v4.052h-26.339Z" fill="#76305a"/><path d="M481.457,713.324l-12.931-22.585-8.939,10.726v11.858h-4.529v-42.428h4.529v24.372l19.784-24.372h5.542l-13.348,16.387,15.255,26.042h-5.363Z" fill="#76305a"/><path d="M520.247,709.272c-2.86,2.861-6.615,4.41-10.845,4.41s-7.986-1.549-10.846-4.41c-3.993-3.992-3.993-8.164-3.993-17.163s0-13.169,3.993-17.162c2.86-2.861,6.615-4.41,10.846-4.41s7.985,1.549,10.845,4.41c3.993,3.992,3.993,8.164,3.993,17.162s0,13.17-3.993,17.163ZM516.732,677.629c-1.847-1.906-4.529-3.039-7.33-3.039s-5.482,1.133-7.33,3.039c-2.682,2.742-2.979,5.602-2.979,14.481s.298,11.74,2.979,14.481c1.848,1.907,4.529,3.04,7.33,3.04s5.482-1.133,7.33-3.04c2.682-2.741,2.98-5.601,2.98-14.481s-.298-11.739-2.98-14.481Z" fill="#76305a"/><path d="M537.883,713.324v-42.428h4.529v38.376h21.691v4.052h-26.22Z" fill="#76305a"/><path d="M596.935,709.272c-2.86,2.861-6.615,4.41-10.845,4.41s-7.986-1.549-10.846-4.41c-3.993-3.992-3.993-8.164-3.993-17.163s0-13.169,3.993-17.162c2.86-2.861,6.615-4.41,10.846-4.41s7.985,1.549,10.845,4.41c3.993,3.992,3.993,8.164,3.993,17.162s0,13.17-3.993,17.163ZM593.419,677.629c-1.847-1.906-4.529-3.039-7.33-3.039s-5.482,1.133-7.33,3.039c-2.682,2.742-2.979,5.602-2.979,14.481s.298,11.74,2.979,14.481c1.848,1.907,4.529,3.04,7.33,3.04s5.482-1.133,7.33-3.04c2.682-2.741,2.98-5.601,2.98-14.481s-.298-11.739-2.98-14.481Z" fill="#76305a"/><path d="M639.122,708.795c-2.979,3.218-6.972,4.887-11.322,4.887-4.172,0-7.986-1.549-10.846-4.41-3.992-3.992-3.992-8.164-3.992-17.163s0-13.169,3.992-17.162c2.861-2.861,6.615-4.41,10.846-4.41,8.104,0,13.586,5.245,14.838,12.693h-4.529c-1.192-5.363-5.005-8.641-10.309-8.641-2.801,0-5.483,1.133-7.33,3.039-2.681,2.742-2.979,5.602-2.979,14.481s.298,11.799,2.979,14.54c1.848,1.907,4.53,2.98,7.33,2.98,3.098,0,6.078-1.252,8.044-3.635,1.728-2.086,2.384-4.41,2.384-7.687v-3.218h-10.428v-3.993h14.957v6.734c0,4.887-1.013,8.164-3.635,10.965Z" fill="#76305a"/><path d="M656.282,713.324v-42.428h4.529v42.428h-4.529Z" fill="#76305a"/><path d="M676.065,713.324v-42.428h26.339v4.052h-21.81v14.957h18.592v4.052h-18.592v15.315h21.81v4.052h-26.339Z" fill="#76305a"/><path d="M753.726,713.681v-42.428h26.339v4.052h-21.81v14.957h18.592v4.052h-18.592v15.315h21.81v4.052h-26.339Z" fill="#76305a"/><path d="M803.361,714.039c-6.376,0-10.548-1.609-14.54-5.602l3.099-3.099c3.516,3.516,6.793,4.648,11.561,4.648,6.197,0,10.011-2.92,10.011-7.867,0-2.205-.655-4.111-2.026-5.303-1.371-1.192-2.443-1.549-5.542-2.026l-4.946-.775c-3.337-.536-5.959-1.608-7.806-3.218-2.146-1.906-3.218-4.529-3.218-7.926,0-7.21,5.184-11.978,13.586-11.978,5.423,0,8.999,1.371,12.634,4.648l-2.92,2.92c-2.622-2.384-5.423-3.635-9.892-3.635-5.661,0-8.939,3.158-8.939,7.866,0,2.086.596,3.754,1.907,4.887,1.31,1.132,3.516,1.966,5.72,2.324l4.648.715c3.992.595,5.959,1.43,7.746,2.979,2.324,1.966,3.575,4.887,3.575,8.402,0,7.449-5.84,12.038-14.659,12.038Z" fill="#76305a"/><path d="M842.927,675.305v38.376h-4.529v-38.376h-12.276v-4.052h29.081v4.052h-12.276Z" fill="#76305a"/><path d="M866.105,713.681v-42.428h26.339v4.052h-21.81v14.957h18.592v4.052h-18.592v15.315h21.81v4.052h-26.339Z" fill="#76305a"/><path d="M917.29,675.305v38.376h-4.529v-38.376h-12.276v-4.052h29.081v4.052h-12.276Z" fill="#76305a"/><path d="M940.468,713.681v-42.428h4.529v42.428h-4.529Z" fill="#76305a"/><path d="M986.649,713.681l-12.931-22.585-8.939,10.726v11.858h-4.529v-42.428h4.529v24.372l19.784-24.372h5.542l-13.348,16.387,15.255,26.042h-5.363Z" fill="#76305a"/><path d="M1026.691,713.681l-3.397-9.594h-18.533l-3.397,9.594h-4.827l15.613-42.428h3.814l15.553,42.428h-4.827ZM1014.117,677.748l-7.986,22.406h15.851l-7.866-22.406Z" fill="#76305a"/><circle cx="727.99" cy="691.246" r="8.979" fill="url(#Nepojmenovaný_přechod_23)"/></svg>