<svg xmlns="http://www.w3.org/2000/svg" id="Ebene_1" data-name="Ebene 1" viewBox="0 0 298.85 63.24"><defs><style>      .cls-1 {        fill-rule: evenodd;      }      .cls-1, .cls-2 {        fill: #0f7dc8;      }    </style></defs><g><g><path class="cls-2" d="M9.14,1.21v.41c-.85.34-1.66.74-2.42,1.17v-1.58c0-.66.54-1.21,1.21-1.21s1.21.55,1.21,1.21Z"></path><path class="cls-2" d="M9.14,10.39v24.9c-.19.19-.38.37-.56.55-.03.03-.05.05-.08.07-.17.16-.34.32-.51.48-.27.27-.54.53-.82.79-.15.14-.3.29-.46.43V13.68c.07-.29.16-.58.29-.86.02-.04.04-.08.05-.12.43-.89,1.16-1.69,2.09-2.31Z"></path><path class="cls-2" d="M9.14,41.37v19.55c0,.66-.54,1.21-1.22,1.21s-1.21-.55-1.21-1.21v-16.64c.09-.18.19-.36.29-.52.11-.18.23-.35.36-.53.01-.02.03-.04.05-.06.12-.17.25-.33.38-.48.13-.15.26-.29.39-.42.3-.32.62-.62.96-.9Z"></path><g><path class="cls-2" d="M23.02,5.17s-.28-.08-.45-.11c-.33-.06-.66-.11-.99-.15-.86-.1-1.73-.2-2.59-.2-.26,0-.53,0-.79.03-.94.09-1.81.4-2.43,1.13-.17.2-.31.48-.2.7.06.13.19.21.32.28.54.28,1.15.4,1.74.52.38.09.77.16,1.16.23-.59.44-1.35.51-2.1.51-.29,0-.58,0-.86,0h-.2c-2.13.04-4.32.18-6.25,1.21-.07.04-.15.08-.22.13-.97.55-1.83,1.3-2.42,2.23-.15.21-.27.44-.39.67-.51,1.05-.64,2.18-.42,3.25v8.18c-1.52-.87-2.87-1.87-3.94-3.39C.74,18.63.03,16.51,0,14.37-.06,9.79,2.94,6,6.72,3.73c.12-.07.25-.15.37-.22.66-.38,1.35-.72,2.05-1.02,2.04-.88,4.21-1.46,6.39-1.8,1.38-.22,2.54-.31,3.5-.31,6.88,0,3.99,4.78,3.99,4.78Z"></path><path class="cls-2" d="M23.16,63.24c-3.05-1.03-6.29-2.51-9.45-4.25-1.28-.7-2.54-1.45-3.76-2.27v-2.46c1.83,1.81,3.86,3.43,6,4.87,2.29,1.56,4.71,2.93,7.22,4.1Z"></path></g><path class="cls-2" d="M24.03,6.15c-.04.08-.7,1.28-2.47,1.29-1.73,0-2.76-1.64-4.02-1.64,0,0,1.85-.91,3.78.15,1.52.83,2.63.25,2.71.2Z"></path></g><path class="cls-1" d="M9.94,27.18v7.3c.15-.18.3-.35.44-.52.06-.07.12-.15.18-.22v-5.98c-.19-.2-.4-.39-.62-.58ZM9.94,10.39v8.61l.37.19c.22.12.44.24.65.37,2.58,1.59,4.59,3.79,5.67,6.21.89,1.98,1.1,4.07.61,6.05-.13.57-.33,1.14-.58,1.69-.11.23-.22.47-.34.7l2.39,2.86v-16.71l-7.83-9.35h7.83v9.35l8.84,10.56V14.2l-2.67-3.19h2.67v3.19l8.85,10.57v-13.76h2.46l5.69,6.79v16.71l-8.15-9.74v16.71l6.56,7.83c-1.42,3.04-3.71,5.6-6.56,7.34v-15.17l-8.85-10.56v16.7l7.98,9.53c-2.38,1.27-5.1,1.99-7.98,1.99v-11.52l-8.84-10.55v16.7l3.87,4.63c-1.38-.42-2.67-1.01-3.87-1.75v-2.88l-8.02-9.57c-.09-.67-.13-1.36-.13-2.05v-1.95l-.12.09-.5.39v1.47c0,9.72,7.9,17.62,17.61,17.62s17.62-7.9,17.62-17.62V10.39H9.94Z"></path><path class="cls-1" d="M16.47,31.64c-.13.51-.3,1.03-.54,1.54-.05.12-.11.23-.18.35-.94,1.9-2.46,3.47-4.12,4.82-.21.17-.42.34-.63.51-.15.11-.29.22-.44.34-.21.15-.42.31-.62.47-.27.22-.54.43-.8.64-.54.44-1.06.89-1.55,1.39-.31.33-.61.68-.88,1.05-.77,1.06-1.32,2.27-1.38,3.56-.04.96.19,1.88.57,2.75v4.46c-.19-.17-.38-.37-.58-.56-1.27-1.3-2.35-2.87-2.7-4.65-.46-2.26.29-4.63,1.54-6.56.73-1.12,1.62-2.08,2.55-3,.61-.6,1.23-1.18,1.85-1.77.19-.19.38-.38.58-.57.26-.26.54-.52.8-.79.22-.21.43-.42.62-.64.16-.16.3-.33.44-.5.51-.61.96-1.29,1.3-2.03.34-.76.61-1.71.41-2.55-.01-.08-.03-.16-.06-.24-.26-.78-.65-1.44-1.13-2.03-.46-.55-.99-1.04-1.58-1.47v-6.26c.21.11.41.22.6.34,2.27,1.4,4.26,3.4,5.36,5.85.8,1.8,1.02,3.69.57,5.55Z"></path></g><g><path class="cls-2" d="M58.14,14.41c1.85,0,3.2.33,4.05,1s1.27,1.7,1.27,3.09c0,.69-.11,1.28-.32,1.78-.22.5-.49.9-.84,1.21-.34.31-.72.51-1.14.62v.11c.44.11.87.3,1.28.58.41.28.73.67.98,1.2.25.52.37,1.21.37,2.07,0,1-.2,1.85-.6,2.56-.4.71-.97,1.26-1.7,1.63-.74.38-1.62.56-2.65.56h-5.04V14.41h4.35ZM58.3,20.99c.83,0,1.4-.18,1.71-.55.31-.37.47-.85.47-1.45,0-.63-.19-1.09-.56-1.39-.38-.3-.96-.45-1.76-.45h-1.5v3.84h1.63ZM56.66,23.63v4.42h1.84c.84,0,1.43-.21,1.77-.63.34-.42.51-.96.51-1.62,0-.41-.07-.78-.22-1.1-.15-.32-.39-.58-.74-.77-.34-.19-.82-.29-1.41-.29h-1.75Z"></path><path class="cls-2" d="M76.61,30.83l-1.04-3.86h-4.76l-1.04,3.86h-3.1l4.74-16.49h3.54l4.76,16.49h-3.1ZM73.96,20.46c-.05-.23-.12-.58-.23-1.04-.11-.46-.21-.93-.31-1.41-.1-.48-.18-.88-.24-1.18-.05.35-.12.76-.22,1.22-.1.46-.19.9-.28,1.33-.08.43-.16.79-.22,1.08l-.97,3.56h3.4l-.94-3.56Z"></path><path class="cls-2" d="M86.31,21.28l2.76-6.88h3.13l-4.44,10.03v6.39h-2.9v-6.28l-4.46-10.14h3.13l2.78,6.88Z"></path><path class="cls-2" d="M103.72,30.83h-7.75V14.41h7.75v2.85h-4.9v3.61h4.55v2.85h-4.55v4.23h4.9v2.88Z"></path><path class="cls-2" d="M113.43,14.41c1.18,0,2.16.18,2.94.54.78.36,1.36.89,1.75,1.6.38.71.58,1.59.58,2.65,0,.74-.11,1.39-.32,1.96-.21.57-.5,1.05-.86,1.45-.36.4-.78.73-1.25.99l3.84,7.25h-3.31l-2.99-6.3h-1.61v6.3h-2.88V14.41h4.12ZM113.38,17.14h-1.2v4.67h1.2c.77,0,1.36-.19,1.77-.57s.62-1.01.62-1.89c0-.49-.08-.9-.25-1.22-.17-.32-.43-.57-.78-.74-.35-.17-.81-.25-1.36-.25Z"></path><path class="cls-2" d="M129.8,30.83h-6.14v-1.98l1.66-.92v-10.63l-1.66-.92v-1.98h6.14v1.98l-1.66.92v10.63l1.66.92v1.98Z"></path><path class="cls-2" d="M143.26,26.28c0,.97-.2,1.81-.59,2.53-.39.72-.96,1.28-1.69,1.67s-1.63.59-2.69.59c-.46,0-.91-.04-1.36-.11-.44-.08-.87-.19-1.29-.33-.41-.15-.8-.33-1.15-.54v-3.24c.64.34,1.31.65,1.99.93s1.36.43,2.04.43c.48,0,.85-.08,1.13-.23s.48-.36.62-.62c.14-.26.21-.56.21-.9,0-.41-.12-.77-.36-1.06-.24-.29-.55-.56-.94-.82-.39-.25-.83-.52-1.32-.82-.32-.18-.66-.4-1.02-.66-.36-.25-.71-.57-1.05-.94-.34-.38-.61-.83-.83-1.37-.21-.54-.32-1.18-.32-1.93,0-.98.19-1.82.56-2.52.38-.7.9-1.23,1.59-1.6.68-.37,1.49-.55,2.43-.55.71,0,1.37.1,2,.3.63.2,1.29.48,2,.85l-.94,2.71c-.62-.31-1.17-.54-1.66-.71-.49-.17-.99-.25-1.5-.25-.35,0-.66.07-.91.21-.25.14-.44.33-.57.57-.13.25-.2.54-.2.87,0,.38.09.71.28.98.18.27.46.53.84.77.38.25.85.54,1.41.87.69.4,1.28.81,1.77,1.24.49.43.87.94,1.13,1.52.26.58.39,1.3.39,2.16Z"></path><path class="cls-2" d="M153.84,17.1c-.54,0-1.02.13-1.45.38s-.8.62-1.1,1.1c-.31.48-.54,1.07-.69,1.75-.15.68-.23,1.46-.23,2.33,0,1.15.13,2.14.39,2.96s.66,1.45,1.2,1.87c.54.43,1.2.64,2,.64.6,0,1.17-.08,1.71-.25.54-.17,1.09-.38,1.64-.64v2.99c-.57.29-1.14.5-1.72.63-.58.13-1.23.2-1.96.2-1.43,0-2.6-.35-3.53-1.05s-1.61-1.68-2.06-2.96c-.45-1.27-.67-2.74-.67-4.42,0-1.24.14-2.38.43-3.42.28-1.04.7-1.93,1.25-2.68.55-.75,1.23-1.33,2.04-1.75.81-.41,1.74-.62,2.79-.62.66,0,1.33.09,2.02.26.69.18,1.34.45,1.96.82l-.94,2.81c-.45-.26-.92-.49-1.44-.68s-1.06-.29-1.64-.29Z"></path><path class="cls-2" d="M173.48,30.83h-2.85v-7.08h-5.34v7.08h-2.85V14.41h2.85v6.44h5.34v-6.44h2.85v16.42Z"></path><path class="cls-2" d="M187.14,30.83h-7.75V14.41h7.75v2.85h-4.9v3.61h4.55v2.85h-4.55v4.23h4.9v2.88Z"></path><path class="cls-2" d="M53.79,53.83v-16.42h2.88v13.52h5.45v2.9h-8.33Z"></path><path class="cls-2" d="M74.72,53.83l-1.04-3.86h-4.76l-1.04,3.86h-3.1l4.74-16.49h3.54l4.76,16.49h-3.1ZM72.07,43.46c-.05-.23-.12-.58-.23-1.04-.11-.46-.21-.93-.31-1.41-.1-.48-.18-.88-.24-1.18-.05.35-.12.76-.22,1.22-.1.46-.19.9-.28,1.33-.08.43-.16.79-.22,1.08l-.97,3.56h3.4l-.94-3.56Z"></path><path class="cls-2" d="M93.19,53.83h-3.63l-5.86-12.42h-.07c.03.52.05,1.04.07,1.56.02.52.03,1.04.06,1.56.02.52.04,1.04.06,1.56v7.73h-2.55v-16.42h3.59l5.86,12.3h.05c-.02-.51-.03-1.01-.03-1.52,0-.51-.02-1.01-.05-1.51-.02-.5-.04-1-.06-1.51v-7.77h2.58v16.42Z"></path><path class="cls-2" d="M109.4,45.34c0,1.89-.29,3.46-.86,4.71-.57,1.26-1.39,2.2-2.44,2.83s-2.31.94-3.78.94h-4.09v-16.42h4.44c1.43,0,2.64.3,3.63.91,1,.61,1.76,1.5,2.3,2.68s.81,2.63.81,4.35ZM106.39,45.48c0-1.18-.14-2.15-.43-2.92-.28-.77-.71-1.34-1.28-1.71-.57-.38-1.27-.56-2.09-.56h-1.5v10.65h1.22c1.38,0,2.4-.45,3.07-1.36s1-2.27,1-4.09Z"></path><path class="cls-2" d="M121.25,53.83h-7.75v-16.42h7.75v2.85h-4.9v3.61h4.55v2.85h-4.55v4.23h4.9v2.88Z"></path><path class="cls-2" d="M134.4,49.28c0,.97-.2,1.81-.59,2.53-.39.72-.95,1.28-1.69,1.67-.74.39-1.63.59-2.69.59-.46,0-.91-.04-1.36-.11-.44-.08-.87-.19-1.29-.33-.41-.15-.8-.33-1.15-.54v-3.24c.64.34,1.31.65,1.99.93s1.36.43,2.04.43c.48,0,.85-.08,1.13-.23s.48-.36.62-.62c.14-.26.21-.56.21-.9,0-.41-.12-.77-.36-1.06-.24-.29-.55-.56-.94-.82-.39-.25-.83-.52-1.32-.82-.32-.18-.66-.4-1.02-.66-.36-.25-.71-.57-1.05-.94-.34-.38-.61-.83-.83-1.37-.21-.54-.32-1.18-.32-1.93,0-.98.19-1.82.56-2.52.38-.7.9-1.23,1.59-1.6.68-.37,1.49-.55,2.43-.55.71,0,1.37.1,2,.3.63.2,1.3.48,2,.85l-.94,2.71c-.61-.31-1.17-.54-1.66-.71-.49-.17-.99-.25-1.5-.25-.35,0-.66.07-.91.21-.25.14-.44.33-.57.57-.13.25-.2.54-.2.87,0,.38.09.71.28.98.18.27.46.53.84.77.38.25.85.54,1.41.87.69.4,1.28.81,1.77,1.24.49.43.87.94,1.13,1.52.26.58.39,1.3.39,2.16Z"></path><path class="cls-2" d="M147.4,53.83l-1.03-3.86h-4.76l-1.03,3.86h-3.11l4.74-16.49h3.54l4.76,16.49h-3.11ZM140.64,34.19c0-.54.12-.93.37-1.17.25-.25.55-.37.92-.37s.66.12.92.37c.26.25.39.64.39,1.17,0,.51-.13.88-.39,1.13-.26.25-.57.37-.92.37s-.67-.13-.92-.38-.37-.62-.37-1.12ZM144.75,43.46c-.05-.23-.12-.58-.23-1.04s-.21-.93-.31-1.41c-.1-.48-.18-.88-.24-1.18-.05.35-.12.76-.22,1.22s-.19.9-.28,1.33c-.08.43-.16.79-.22,1.08l-.97,3.56h3.4l-.94-3.56ZM144.71,34.19c0-.54.12-.93.37-1.17.25-.25.55-.37.92-.37s.66.12.92.37c.26.25.39.64.39,1.17,0,.51-.13.88-.39,1.13-.26.25-.57.37-.92.37s-.67-.13-.92-.38c-.25-.25-.37-.62-.37-1.12Z"></path><path class="cls-2" d="M158.42,37.41c1.18,0,2.16.18,2.94.54s1.36.89,1.75,1.6c.38.71.58,1.59.58,2.65,0,.74-.11,1.39-.32,1.96-.21.57-.5,1.05-.86,1.45-.36.4-.78.73-1.25.99l3.84,7.25h-3.31l-2.99-6.3h-1.61v6.3h-2.88v-16.42h4.12ZM158.37,40.14h-1.2v4.67h1.2c.77,0,1.36-.19,1.77-.57s.62-1.01.62-1.89c0-.49-.08-.9-.25-1.22-.17-.32-.43-.57-.78-.74-.35-.17-.8-.25-1.36-.25Z"></path><path class="cls-2" d="M177.94,53.83h-10v-2.25l6.44-11.29h-6.28v-2.88h9.68v2.25l-6.46,11.29h6.62v2.88Z"></path><path class="cls-2" d="M187.46,53.83h-2.88v-13.5h-3.63v-2.92h10.17v2.92h-3.66v13.5Z"></path><path class="cls-2" d="M202.64,53.83h-7.75v-16.42h7.75v2.85h-4.9v3.61h4.55v2.85h-4.55v4.23h4.9v2.88Z"></path><path class="cls-2" d="M218.79,53.83h-3.24l-3.52-6.92-1.2,1.06v5.87h-2.85v-16.42h2.85v7.52c.18-.32.37-.64.56-.97.19-.32.38-.64.56-.97l3.63-5.59h3.17l-4.69,7.27,4.71,9.15Z"></path><path class="cls-2" d="M230.91,53.83l-1.03-3.86h-4.76l-1.03,3.86h-3.11l4.74-16.49h3.54l4.76,16.49h-3.11ZM228.27,43.46c-.05-.23-.12-.58-.23-1.04s-.21-.93-.31-1.41c-.1-.48-.18-.88-.24-1.18-.05.35-.12.76-.22,1.22s-.19.9-.28,1.33c-.08.43-.16.79-.22,1.08l-.97,3.56h3.4l-.94-3.56Z"></path><path class="cls-2" d="M243.01,53.83l-3.24-12.88h-.07c.01.31.03.77.06,1.38.02.61.05,1.27.08,1.97.03.7.05,1.33.05,1.9v7.64h-2.55v-16.42h3.89l3.17,12.56h.07l3.38-12.56h3.86v16.42h-2.65v-7.77c0-.52,0-1.12.02-1.79.01-.67.03-1.31.06-1.92.02-.61.04-1.06.06-1.37h-.09l-3.47,12.86h-2.62Z"></path><path class="cls-2" d="M262.28,53.83l-3.24-12.88h-.07c.01.31.03.77.06,1.38.02.61.05,1.27.08,1.97.03.7.05,1.33.05,1.9v7.64h-2.55v-16.42h3.89l3.17,12.56h.07l3.38-12.56h3.86v16.42h-2.65v-7.77c0-.52,0-1.12.02-1.79.01-.67.03-1.31.06-1.92.02-.61.04-1.06.06-1.37h-.09l-3.47,12.86h-2.62Z"></path><path class="cls-2" d="M283.51,53.83h-7.75v-16.42h7.75v2.85h-4.9v3.61h4.55v2.85h-4.55v4.23h4.9v2.88Z"></path><path class="cls-2" d="M292.18,37.41c1.18,0,2.16.18,2.94.54s1.36.89,1.75,1.6c.38.71.58,1.59.58,2.65,0,.74-.11,1.39-.32,1.96-.21.57-.5,1.05-.86,1.45-.36.4-.78.73-1.25.99l3.84,7.25h-3.31l-2.99-6.3h-1.61v6.3h-2.88v-16.42h4.12ZM292.14,40.14h-1.2v4.67h1.2c.77,0,1.36-.19,1.77-.57s.62-1.01.62-1.89c0-.49-.08-.9-.25-1.22-.17-.32-.43-.57-.78-.74-.35-.17-.8-.25-1.36-.25Z"></path></g></svg>